<svg xmlns="http://www.w3.org/2000/svg" viewBox="0 0 352.63 78.93"><defs><style>.cls-1{fill:#cf0613;}.cls-2{fill:#fff;}</style></defs><title>Zasób 17</title><g id="Warstwa_2" data-name="Warstwa 2"><g id="Warstwa_3" data-name="Warstwa 3"><path class="cls-1" d="M161.37,76.86h-.63a.59.59,0,0,1-.32-.06.35.35,0,0,1-.17-.24l-.13-.42a2.94,2.94,0,0,1-.44.35,2.43,2.43,0,0,1-.44.26,2.46,2.46,0,0,1-.48.16,2.71,2.71,0,0,1-.57,0,2.75,2.75,0,0,1-.7-.1,1.65,1.65,0,0,1-.53-.3,1.46,1.46,0,0,1-.35-.5,1.65,1.65,0,0,1-.12-.69,1.19,1.19,0,0,1,.17-.66,1.75,1.75,0,0,1,.58-.6,3.73,3.73,0,0,1,1.08-.42,6.31,6.31,0,0,1,1.68-.17v-.35a1.21,1.21,0,0,0-.26-.88A.87.87,0,0,0,159,72a1.88,1.88,0,0,0-1,.27l-.31.17a.53.53,0,0,1-.32.08.34.34,0,0,1-.24-.07.58.58,0,0,1-.17-.18l-.26-.45a3.53,3.53,0,0,1,2.43-.94,2.69,2.69,0,0,1,.93.17,2,2,0,0,1,.68.48,2,2,0,0,1,.42.71,2.91,2.91,0,0,1,.15.92Zm-2.7-.88a1.34,1.34,0,0,0,.4,0,1.18,1.18,0,0,0,.36-.12,1.89,1.89,0,0,0,.3-.19,2.79,2.79,0,0,0,.32-.28v-1a6,6,0,0,0-1,.07,3.19,3.19,0,0,0-.67.19,1,1,0,0,0-.36.3.68.68,0,0,0-.1.35.66.66,0,0,0,.22.53A1,1,0,0,0,158.67,76Z"/><path class="cls-1" d="M165,76.86V71h.83a.43.43,0,0,1,.3.09.45.45,0,0,1,.12.28l.09.7a2.85,2.85,0,0,1,.72-.86,1.58,1.58,0,0,1,1-.32,1.18,1.18,0,0,1,.73.21l-.18,1.06a.21.21,0,0,1-.07.14h-.39a2.67,2.67,0,0,0-.4,0,1.29,1.29,0,0,0-.76.24,2,2,0,0,0-.53.72V76.9Z"/><path class="cls-1" d="M187.35,70.91a3.34,3.34,0,0,1,1.21.2,2.36,2.36,0,0,1,.91.61,2.67,2.67,0,0,1,.59,1,3.79,3.79,0,0,1,0,2.43,2.86,2.86,0,0,1-.59,1,2.45,2.45,0,0,1-.91.6,3.5,3.5,0,0,1-2.43,0,2.57,2.57,0,0,1-.92-.6,2.86,2.86,0,0,1-.59-1,3.79,3.79,0,0,1,0-2.43,2.54,2.54,0,0,1,.59-1,2.6,2.6,0,0,1,.92-.61A3.36,3.36,0,0,1,187.35,70.91Zm0,5a1.2,1.2,0,0,0,1.08-.48,3.14,3.14,0,0,0,0-2.89,1.43,1.43,0,0,0-2-.16,1.21,1.21,0,0,0-.16.16,2.42,2.42,0,0,0-.35,1.44,2.46,2.46,0,0,0,.35,1.43A1.21,1.21,0,0,0,187.35,75.86Z"/><path class="cls-1" d="M193.63,76.86V71h.86a.33.33,0,0,1,.35.27l.1.42a2.42,2.42,0,0,1,.33-.31l.35-.25A2.86,2.86,0,0,1,196,71a2,2,0,0,1,.49-.06,1.32,1.32,0,0,1,.91.3A1.71,1.71,0,0,1,198,72a2.45,2.45,0,0,1,.34-.5,3,3,0,0,1,.45-.34,2.38,2.38,0,0,1,1.09-.25,2.32,2.32,0,0,1,.86.14,1.5,1.5,0,0,1,.64.44,1.9,1.9,0,0,1,.39.69,3.07,3.07,0,0,1,.13.95v3.73h-1.4V73.13a1.27,1.27,0,0,0-.25-.84.9.9,0,0,0-.73-.29,1.12,1.12,0,0,0-.4.07,1.19,1.19,0,0,0-.33.22,1,1,0,0,0-.21.35,1.36,1.36,0,0,0-.08.49v3.73H197V73.13a1.31,1.31,0,0,0-.24-.86.87.87,0,0,0-.69-.27,1.08,1.08,0,0,0-.58.16,1.49,1.49,0,0,0-.49.41v4.29Z"/><path class="cls-1" d="M213.35,70.91a3,3,0,0,1,1,.17,2.21,2.21,0,0,1,.8.52,2.28,2.28,0,0,1,.52.84,2.89,2.89,0,0,1,.19,1.13,1.13,1.13,0,0,1,0,.26.43.43,0,0,1,0,.16.22.22,0,0,1-.1.09.43.43,0,0,1-.16,0H212a2,2,0,0,0,.49,1.33,1.51,1.51,0,0,0,1.12.43,2,2,0,0,0,.59-.09,1.78,1.78,0,0,0,.43-.18l.33-.17a.53.53,0,0,1,.27-.08h.15l.11.09.41.51a2.38,2.38,0,0,1-.53.47,3.45,3.45,0,0,1-.61.3,4.61,4.61,0,0,1-.64.16h-.63a3.24,3.24,0,0,1-1.15-.2,2.66,2.66,0,0,1-1.53-1.59,3.86,3.86,0,0,1-.22-1.35,3.13,3.13,0,0,1,.2-1.13,2.65,2.65,0,0,1,.56-.92,2.47,2.47,0,0,1,.88-.62A2.8,2.8,0,0,1,213.35,70.91Zm0,1a1.3,1.3,0,0,0-1,.36,1.59,1.59,0,0,0-.45,1h2.62a1.79,1.79,0,0,0-.07-.51,1.3,1.3,0,0,0-.22-.42,1.23,1.23,0,0,0-1-.41Z"/><path class="cls-1" d="M254.53,70.91a2.91,2.91,0,0,1,1,.17,2.25,2.25,0,0,1,.81.52,2.58,2.58,0,0,1,.52.84,3.09,3.09,0,0,1,.19,1.13,1.13,1.13,0,0,1,0,.26.22.22,0,0,1,0,.16.18.18,0,0,1-.1.09.38.38,0,0,1-.15,0h-3.65a2.08,2.08,0,0,0,.49,1.33,1.57,1.57,0,0,0,1.13.43,1.9,1.9,0,0,0,.58-.09,1.85,1.85,0,0,0,.44-.18l.33-.17a.5.5,0,0,1,.26-.08.22.22,0,0,1,.16,0l.11.09.4.51a2.11,2.11,0,0,1-.52.47,3.45,3.45,0,0,1-.61.3,4.61,4.61,0,0,1-.64.16h-.65a3.1,3.1,0,0,1-1.21-.14,2.57,2.57,0,0,1-.92-.6,2.83,2.83,0,0,1-.61-1,3.86,3.86,0,0,1-.22-1.35,3.35,3.35,0,0,1,.19-1.13,2.56,2.56,0,0,1,.56-.92,2.39,2.39,0,0,1,.88-.62A2.77,2.77,0,0,1,254.53,70.91Zm0,1a1.35,1.35,0,0,0-1,.36,1.7,1.7,0,0,0-.44,1h2.65a1.79,1.79,0,0,0-.07-.51,1,1,0,0,0-.23-.42,1.14,1.14,0,0,0-.39-.3,1.35,1.35,0,0,0-.52-.11Z"/><path class="cls-1" d="M259.78,71h1.12a.44.44,0,0,1,.27.09.32.32,0,0,1,.14.18l.84,3.13a4.48,4.48,0,0,1,.11.5,4.33,4.33,0,0,0,.08.5,1.87,1.87,0,0,1,.14-.5l.14-.5,1-3.14a.33.33,0,0,1,.14-.19A.4.4,0,0,1,264,71h.63a.45.45,0,0,1,.26.08.36.36,0,0,1,.13.19l1,3.2a2.18,2.18,0,0,0,.14.48c0,.16.08.31.12.46a4.17,4.17,0,0,1,.08-.49c0-.15.08-.34.13-.51l.87-3.13a.3.3,0,0,1,.13-.18.43.43,0,0,1,.26-.09h1.07l-1.86,5.87h-1.14c-.12,0-.21-.07-.26-.24l-1.06-3.39a1.89,1.89,0,0,0-.09-.34,2.09,2.09,0,0,1-.08-.34l-.07.34a2.19,2.19,0,0,1-.1.34L263,76.62a.3.3,0,0,1-.31.24h-1.08Z"/><path class="cls-1" d="M275.31,72.15a.63.63,0,0,1-.11.12.48.48,0,0,1-.17,0,.81.81,0,0,1-.22,0l-.27-.14a2.09,2.09,0,0,0-.35-.13,1.77,1.77,0,0,0-.46,0,1.06,1.06,0,0,0-.67.17.56.56,0,0,0-.23.46A.43.43,0,0,0,273,73a.86.86,0,0,0,.33.23,3.61,3.61,0,0,0,.46.17l.52.17.53.2a2.32,2.32,0,0,1,.46.31,1.64,1.64,0,0,1,.33.44,1.2,1.2,0,0,1,.12.59,2,2,0,0,1-.16.79,1.87,1.87,0,0,1-.45.62,2,2,0,0,1-.73.4,3.34,3.34,0,0,1-1.6.09,4.94,4.94,0,0,1-.55-.15,3.22,3.22,0,0,1-.5-.23,3.6,3.6,0,0,1-.4-.28l.33-.55.15-.14a.37.37,0,0,1,.21,0,.48.48,0,0,1,.26.07l.27.16a3.92,3.92,0,0,0,.36.16,1.9,1.9,0,0,0,.54.07,1.48,1.48,0,0,0,.42,0,1.08,1.08,0,0,0,.3-.16.55.55,0,0,0,.17-.23.61.61,0,0,0,0-.27.45.45,0,0,0-.12-.34,1.5,1.5,0,0,0-.33-.23,3.12,3.12,0,0,0-.46-.17l-.53-.17-.52-.2a2.23,2.23,0,0,1-.48-.32,1.17,1.17,0,0,1-.31-.46,1.55,1.55,0,0,1-.14-.67,1.68,1.68,0,0,1,.57-1.22,2.07,2.07,0,0,1,.7-.38,2.61,2.61,0,0,1,1-.15,3,3,0,0,1,1.1.19,2.53,2.53,0,0,1,.83.54Z"/><path class="cls-1" d="M95.37,38c3.37,0,6.43,1,6.43,4.95a4.59,4.59,0,0,1-2.73,4.17,4.57,4.57,0,0,1,3.71,4.73c0,3.86-2.67,5.91-7.6,5.91H86.84V55.29l1-.08a.76.76,0,0,0,.86-.84V40.57L87,40.48V38Zm-3.06,8.11h2.2c2.56,0,3.65-1.21,3.65-2.77,0-2.14-1.46-2.61-3.41-2.61H92.32Zm0,8.86h2.8C98,54.93,99,53.59,99,51.78s-1.36-3.06-3.65-3.06h-3Z"/><path class="cls-1" d="M115.75,40.54c-3.74,0-5.61,2.68-5.61,7.16,0,4.68,1.54,7.56,5.67,7.47A8,8,0,0,0,118,54.9c.54-.18.62-.42.62-1V51.49l3,.21v5.15a13.59,13.59,0,0,1-5.89,1.21c-6.08,0-9.33-3.39-9.33-10.17,0-7.76,4.75-10.35,9.33-10.35a13.66,13.66,0,0,1,5.59,1.22v5.15l-3,.21V41.8c0-.58-.1-.81-.63-1A7,7,0,0,0,115.75,40.54Z"/><path class="cls-2" d="M133,55.32l1-.09a.77.77,0,0,0,.87-.84V40.57l-1.7-.09V38h8.5c4.38,0,7,2.07,7,6.07,0,4.52-3.21,6.78-7.69,6.78h-2.54v4.31l2.85.09v2.53H133Zm7.62-7.4c2.59,0,4.34-.9,4.34-3.55,0-3.06-1.75-3.53-4.67-3.53h-1.82v7.08Z"/><path class="cls-2" d="M165.89,49.1h-8.43v6l1.72.09v2.52H152V55.29l1-.08a.77.77,0,0,0,.87-.84V40.57l-1.69-.09V38h7.19v2.43l-1,.08c-.55,0-.88.24-.88,1v4.6h8.41V40.59l-1.69-.08V38h7.19v2.43l-1,.08a.84.84,0,0,0-.87.81.76.76,0,0,0,0,.15V55.14l1.7.08v2.53H164V55.32l1-.09c.57,0,.87-.24.87-1Z"/><path class="cls-2" d="M183.53,58.11c-5.3,0-8.63-3.45-8.63-10.23,0-7.6,4.79-10.29,9-10.29,4.43,0,8.42,2.74,8.42,10.29C192.28,54.7,188.73,58.11,183.53,58.11Zm.21-3c3.78,0,4.86-3.57,4.86-7.14,0-3-.8-7.29-4.86-7.29-3.81,0-5.06,3.55-5.06,7.08S179.46,55.11,183.74,55.11Z"/><path class="cls-2" d="M200.52,40.9H198.2c-.64,0-.69.41-.69.92v1.4l-3-.21V38H210v5l-3,.21v-1.4c0-.57-.06-.92-.86-.92h-2V55.11l2.35.09v2.52h-8.39V55.29l1.58-.08c.56,0,.87-.24.87-.84Z"/><path class="cls-2" d="M220.85,58.11c-5.29,0-8.62-3.45-8.62-10.23,0-7.6,4.78-10.29,9-10.29,4.44,0,8.42,2.74,8.42,10.29C229.6,54.7,226.05,58.11,220.85,58.11Zm.21-3c3.78,0,4.86-3.57,4.86-7.14,0-3-.8-7.29-4.86-7.29-3.8,0-5.05,3.55-5.05,7.08s.77,7.35,5.05,7.35Z"/><path class="cls-2" d="M249.05,56.18a12.25,12.25,0,0,1-6.84,1.91c-5.38,0-8.74-3.31-8.74-10.21,0-7.7,5.2-10.29,9.48-10.29a13.85,13.85,0,0,1,5.84,1.22v5.1l-3,.21V41.8c0-.58-.09-.81-.63-1a7.77,7.77,0,0,0-2.2-.23c-4,0-5.74,2.67-5.74,7.11,0,4.66,1.55,7.48,5.18,7.48a7.17,7.17,0,0,0,3.15-.7V50h0l-2.3-.08V47.36h7.41v2.43l-.68.06c-.63,0-.86.27-.86,1Z"/><path class="cls-2" d="M253.78,55.32l1-.09a.77.77,0,0,0,.87-.84V40.57l-1.7-.09V38H262c4.37,0,7.15,1.42,7.15,5.46a5.48,5.48,0,0,1-3.58,5.24,2.88,2.88,0,0,1,1.7,1.81l2.14,4.67h1.69v2.52h-7.29V55.23l.86-.08c.68-.1.83-.37.56-1l-1.39-3c-.42-.92-.83-1.37-1.88-1.37h-2.7V55l1.93.08v2.53h-7.4Zm8-8.22c2.53,0,3.65-1.15,3.65-3.26,0-2.68-1.54-3-4.07-3h-2.18V47.1Z"/><path class="cls-2" d="M279.74,40.54l-1.87-.18V37.93h6.81l6.07,17.16h0l1.69.08V57.7h-7.67V55.27l1.13-.09c.62,0,.93-.24.72-.89L286,52.44H279l-.9,2.62,1.79.09v2.53h-6.87V55.25l1-.09c.51,0,.7-.27.9-.84Zm0,9.21h5.54l-2.68-8.5h0Z"/><path class="cls-2" d="M295.06,55.32l1-.09a.76.76,0,0,0,.86-.84V40.57l-1.69-.09V38h8.5c4.38,0,7.05,2.07,7.05,6.07,0,4.52-3.21,6.78-7.7,6.78h-2.53v4.31l2.86.09v2.53h-8.33Zm7.61-7.4c2.59,0,4.35-.9,4.35-3.55,0-3.06-1.76-3.53-4.68-3.53h-1.81v7.08Z"/><path class="cls-2" d="M328,49.1h-8.41v6l1.72.09v2.52h-7.2V55.29l1-.08a.77.77,0,0,0,.87-.84V40.57l-1.69-.09V38h7.23v2.43l-1,.08c-.56,0-.88.24-.88,1v4.6H328V40.59l-1.69-.08V38h7.2v2.43l-1,.08a.84.84,0,0,0-.87.81.76.76,0,0,0,0,.15V55.14l1.7.08v2.53h-7.19V55.32l1-.09c.57,0,.86-.24.86-1Z"/><path class="cls-2" d="M342.41,50.18l-5.07-9.61L336,40.48V38h7.29v2.43l-.9.08c-.66,0-.83.54-.5,1.22l2.53,5.17h.11l3.24-6.19-1.48-.11V38h6.39v2.43l-.89.08c-.48,0-.72.37-1,.9l-4.66,8.83v4.94l2.32.08v2.53H340V55.32l1.58-.09c.56,0,.86-.24.86-.84Z"/><path class="cls-1" d="M147.13,76.86V68.6H150a6,6,0,0,1,1.4.14,2.72,2.72,0,0,1,.94.45,1.7,1.7,0,0,1,.54.7,2.3,2.3,0,0,1,.09,1.47,1.69,1.69,0,0,1-.27.49,2.3,2.3,0,0,1-.46.42,2.24,2.24,0,0,1-.66.32c1.13.26,1.7.87,1.7,1.84a2.3,2.3,0,0,1-.19,1,2.13,2.13,0,0,1-.58.78,3.21,3.21,0,0,1-.95.5,4.22,4.22,0,0,1-1.28.18Zm1.53-4.69h1.22a2,2,0,0,0,1.21-.28,1,1,0,0,0,.41-.91,1.07,1.07,0,0,0-.36-.92,1.92,1.92,0,0,0-1.21-.27h-1.32Zm0,1.07v2.43h1.57a2.25,2.25,0,0,0,.72-.11,1.21,1.21,0,0,0,.46-.28,1.14,1.14,0,0,0,.25-.39,1.61,1.61,0,0,0,.08-.48,1.33,1.33,0,0,0-.09-.49,1,1,0,0,0-.27-.37,1.15,1.15,0,0,0-.47-.23,2.33,2.33,0,0,0-.69-.08Z"/><path class="cls-1" d="M173.91,77a1.54,1.54,0,0,1-1.22-.44,1.6,1.6,0,0,1-.41-1.22V72h-.6a.34.34,0,0,1-.19-.09.25.25,0,0,1-.08-.22v-.56l.94-.15.29-1.61a.25.25,0,0,1,.11-.17.27.27,0,0,1,.21-.06h.73V71h1.54v1h-1.49v3.17a.6.6,0,0,0,.14.43.48.48,0,0,0,.37.15h.22l.16-.07.1-.06h.11a.09.09,0,0,1,.1,0s.06.06.09.09l.42.68a2,2,0,0,1-.7.39A2.69,2.69,0,0,1,173.91,77Z"/><path class="cls-1" d="M180.54,68.37v3.18l.94-.38V72a.28.28,0,0,1-.2.3l-.74.32v4.25h-1.41V73.07l-.93.38v-.84a.27.27,0,0,1,.18-.27l.75-.32V68.38Z"/><path class="cls-1" d="M207.27,69.29a.8.8,0,0,1-.07.34,1.1,1.1,0,0,1-.2.28.81.81,0,0,1-.29.19.85.85,0,0,1-.7,0,.77.77,0,0,1-.28-.19,1,1,0,0,1-.2-.28,1,1,0,0,1-.07-.34,1,1,0,0,1,.07-.36,1,1,0,0,1,.2-.28.69.69,0,0,1,.28-.2.85.85,0,0,1,.7,0,.84.84,0,0,1,.29.2,1,1,0,0,1,.2.28A.86.86,0,0,1,207.27,69.29Zm-.21,1.7v5.87h-1.42V71Z"/><path class="cls-1" d="M220.81,71v6.08a2.45,2.45,0,0,1-.11.71,1.52,1.52,0,0,1-.32.6,1.64,1.64,0,0,1-.57.4,2.39,2.39,0,0,1-.88.14h-.37l-.35-.08v-.77a.17.17,0,0,1,.09-.14h.28a1.15,1.15,0,0,0,.37,0,.51.51,0,0,0,.23-.14.58.58,0,0,0,.12-.25,2.41,2.41,0,0,0,0-.38V71.09Zm.2-1.7a.83.83,0,0,1-.27.62.81.81,0,0,1-.29.19.85.85,0,0,1-.7,0,1,1,0,0,1-.48-.47,1,1,0,0,1-.07-.34,1,1,0,0,1,.07-.36,1,1,0,0,1,.48-.48.85.85,0,0,1,.7,0,.84.84,0,0,1,.29.2.8.8,0,0,1,.2.28A.86.86,0,0,1,221,69.29Z"/><path class="cls-1" d="M234.9,74.92a.31.31,0,0,1,.22.09l.61.66a3.69,3.69,0,0,1-1.22,1,4.72,4.72,0,0,1-3.43,0,3.63,3.63,0,0,1-1.21-.88,4.11,4.11,0,0,1-.8-1.33,5,5,0,0,1-.27-1.7,4.45,4.45,0,0,1,.3-1.7,3.92,3.92,0,0,1,2.21-2.22,4.65,4.65,0,0,1,1.73-.31,4.16,4.16,0,0,1,1.6.29,3.94,3.94,0,0,1,1.22.79l-.52.7a.28.28,0,0,1-.11.13.39.39,0,0,1-.21.06.54.54,0,0,1-.27-.11,1.52,1.52,0,0,0-.34-.22,3.54,3.54,0,0,0-.53-.23,3.31,3.31,0,0,0-.83-.1A2.83,2.83,0,0,0,232,70a2.5,2.5,0,0,0-.84.57,2.69,2.69,0,0,0-.55.92,3.36,3.36,0,0,0-.2,1.22,3.57,3.57,0,0,0,.2,1.21,2.91,2.91,0,0,0,.53.92,2.11,2.11,0,0,0,.8.56,2.41,2.41,0,0,0,1,.21h.57a2.56,2.56,0,0,0,.46-.11,2.17,2.17,0,0,0,.41-.19,2.79,2.79,0,0,0,.38-.3l.12-.08Z"/><path class="cls-1" d="M240.79,69.29a.83.83,0,0,1-.27.62.81.81,0,0,1-.29.19.85.85,0,0,1-.35.08,1,1,0,0,1-.63-.27.84.84,0,0,1-.18-.28.81.81,0,0,1-.08-.34.86.86,0,0,1,.08-.36.75.75,0,0,1,.18-.28.84.84,0,0,1,.29-.2.8.8,0,0,1,.34-.07.88.88,0,0,1,.64.27.8.8,0,0,1,.2.28A.86.86,0,0,1,240.79,69.29Zm-.2,1.7v5.87h-1.41V71Z"/><path class="cls-1" d="M248.7,71.57a.76.76,0,0,1,0,.3.77.77,0,0,1-.12.24l-2.79,3.64h2.79v1.08h-4.5v-.58a.83.83,0,0,1,.2-.48l2.81-3.72h-2.84V71h4.45Zm-1.21-2.3a.84.84,0,0,1-.08.34,1,1,0,0,1-.19.29,1.75,1.75,0,0,1-.29.18.86.86,0,0,1-.36.07.84.84,0,0,1-.35-.07,1.67,1.67,0,0,1-.28-.18,1.32,1.32,0,0,1-.19-.29,1,1,0,0,1-.06-.34,1.13,1.13,0,0,1,.06-.36,1.32,1.32,0,0,1,.19-.29,1.73,1.73,0,0,1,.28-.19.85.85,0,0,1,.35-.08.86.86,0,0,1,.36.08,1.32,1.32,0,0,1,.29.19,1,1,0,0,1,.19.29.9.9,0,0,1,.05.36Z"/><path class="cls-1" d="M280.52,68.37v4.86H281a.8.8,0,0,0,.17-.15l1.45-1.8a.91.91,0,0,1,.21-.18.5.5,0,0,1,.29-.07h1.29l-1.82,2.18-.2.22a1.24,1.24,0,0,1-.23.17.88.88,0,0,1,.22.21l.18.24,2,2.85h-1.28a.66.66,0,0,1-.28,0,.64.64,0,0,1-.2-.2l-1.5-2.22a.42.42,0,0,0-.17-.18.53.53,0,0,0-.25,0h-.33V77h-1.41v-8.5Z"/><path class="cls-1" d="M289.39,69.29a.8.8,0,0,1-.07.34,1,1,0,0,1-.2.28.81.81,0,0,1-.29.19.85.85,0,0,1-.35.08,1,1,0,0,1-.63-.27,1.07,1.07,0,0,1-.19-.28,1,1,0,0,1-.07-.34,1,1,0,0,1,.07-.36.92.92,0,0,1,.19-.28.84.84,0,0,1,.29-.2.8.8,0,0,1,.34-.07.88.88,0,0,1,.64.27,1,1,0,0,1,.2.28A.86.86,0,0,1,289.39,69.29Zm-.21,1.7v5.87h-1.41V71Z"/><path class="cls-2" d="M70.25,19.76h-17C52.31,8.72,42.42,0,30.37,0S8.35,8.79,7.45,19.9A9,9,0,0,0,0,28.76V62.25a9,9,0,0,0,9,9H37.54a1.83,1.83,0,1,0,0-3.65H9a5.34,5.34,0,0,1-5.33-5.33V28.76A5.34,5.34,0,0,1,9,23.42a1.83,1.83,0,0,0,1.86-1.8v0a1.79,1.79,0,0,0-.15-.72C11.07,11,19.76,3.07,30.4,3.07c10.25,0,18.67,7.34,19.62,16.67H26a1.83,1.83,0,0,0-1.72,1.93A1.85,1.85,0,0,0,26,23.4H70.25a5.34,5.34,0,0,1,5.34,5.34V62.25a5.35,5.35,0,0,1-5.34,5.33,1.83,1.83,0,1,0,0,3.65h0a9,9,0,0,0,9-9V28.76a9,9,0,0,0-9-9Z"/><rect class="cls-1" x="24.15" y="19.76" width="3.65" height="27.02"/><path class="cls-1" d="M41.49,62.77A17.36,17.36,0,1,1,58.84,45.42v0A17.36,17.36,0,0,1,41.49,62.77m0-31A13.69,13.69,0,1,0,55.18,45.46,13.69,13.69,0,0,0,41.49,31.73h0"/></g></g></svg>