<svg xmlns="http://www.w3.org/2000/svg" viewBox="0 0 249.19 77.46"><defs><style>.cls-1{fill:#cdcdcd;}.cls-2{fill:#fff;}.cls-3{fill:#d9d9d9;}</style></defs><title>Zasób 15</title><g id="Warstwa_2" data-name="Warstwa 2"><g id="Warstwa_1-2" data-name="Warstwa 1"><path class="cls-1" d="M113.67,14.49a14.9,14.9,0,0,0-12.29,5.08c-2.86,3.12-3.08,6.56-3.38,8.35-.53,3.19-1.56,8.69-1.21,10a5.24,5.24,0,0,0,3,3.52,10.12,10.12,0,0,0,4.26.81c4.66-.28,7.84-1.68,10.14-3.82a13.08,13.08,0,0,0,1.5-1.66,11.79,11.79,0,0,0,2.34-4.17c.79-2.8,1.26-6.66,1.92-10.69C121,15.94,115.9,14.62,113.67,14.49Zm-1.12,5.74c-.9,5.45-1.84,10.88-2.71,16.33a3,3,0,0,1-2.93,2.4c-2,0-2.5-2-2.29-3.3q1.23-7.45,2.48-14.9c.38-1.85,1-2.94,2.84-3.08A2.47,2.47,0,0,1,112.55,20.23Z"/><path class="cls-1" d="M88.23,10a35.11,35.11,0,0,0-.94,4.49,14.84,14.84,0,0,0-8,1.71,15.83,15.83,0,0,0-3.91,3l-.4.41a8.93,8.93,0,0,0-1.91,2.77,17.4,17.4,0,0,0-1.49,5.49,84.11,84.11,0,0,0-1.29,9.16,3.52,3.52,0,0,0,.07,1,5.21,5.21,0,0,0,3,3.52,10.22,10.22,0,0,0,4.28.81c4.65-.28,7.84-1.68,10.13-3.82a12.36,12.36,0,0,0,1.5-1.66,11.67,11.67,0,0,0,2.28-4c0-.08.07-.15.1-.23a167.65,167.65,0,0,0,3.21-16.88C95.76,10.15,96.77,4.54,97.48,0A15.77,15.77,0,0,0,88.23,10ZM86,20.21c-.86,5.45-1.84,10.9-2.71,16.35A3.05,3.05,0,0,1,80.49,39,2.18,2.18,0,0,1,79,38.47a3.16,3.16,0,0,1-.84-2.81q1.23-7.45,2.48-14.9c.38-1.85,1-2.94,2.84-3.08a3.14,3.14,0,0,1,.54,0A2.45,2.45,0,0,1,86,20.21Z"/><path class="cls-1" d="M219.12,14.49a14.9,14.9,0,0,0-12.29,5.08c-2.85,3.12-3.08,6.56-3.38,8.35-.53,3.19-1.56,8.69-1.2,10a5.2,5.2,0,0,0,3,3.52,10.17,10.17,0,0,0,4.27.81c4.65-.28,7.84-1.68,10.14-3.82a13,13,0,0,0,1.49-1.66,11.64,11.64,0,0,0,2.34-4.17c.79-2.8,1.26-6.66,1.92-10.69C226.43,15.94,221.35,14.62,219.12,14.49ZM218,20.23c-.91,5.45-1.85,10.88-2.72,16.33a3,3,0,0,1-2.93,2.4c-2,0-2.5-2-2.29-3.3q1.25-7.45,2.48-14.9c.38-1.85,1-2.94,2.84-3.08A2.48,2.48,0,0,1,218,20.23Z"/><path class="cls-1" d="M239.8,16.65A4.37,4.37,0,0,0,238.18,15a4.24,4.24,0,0,0-2.19-.59,4.4,4.4,0,0,0-3.82,2.23,4.5,4.5,0,0,0,0,4.42,4.34,4.34,0,0,0,1.6,1.64,4.36,4.36,0,0,0,4.48,0,4.39,4.39,0,0,0,1.59-1.64,4.52,4.52,0,0,0,0-4.43Zm-.54,4.16a3.83,3.83,0,0,1-1.38,1.39,3.61,3.61,0,0,1-1.89.52,3.7,3.7,0,0,1-1.89-.51A3.87,3.87,0,0,1,232.71,17a3.86,3.86,0,0,1,1.38-1.4,3.73,3.73,0,0,1,1.9-.51,3.62,3.62,0,0,1,1.9.52,3.83,3.83,0,0,1,1.37,1.4,3.87,3.87,0,0,1,0,3.84Z"/><path class="cls-1" d="M237.52,18.64a1.41,1.41,0,0,0,.25-.84,1.46,1.46,0,0,0-.45-1.17,2.16,2.16,0,0,0-1.43-.38h-1.53v5.28h.87v-2.1H236l1.21,2.1h1l-1.4-2.34A1.43,1.43,0,0,0,237.52,18.64Zm-1.66.06h-.63V17h.62a1.33,1.33,0,0,1,.8.19.75.75,0,0,1,.25.64.78.78,0,0,1-.29.62A1,1,0,0,1,235.86,18.7Z"/><path class="cls-1" d="M144.43,16.18c-2.45-2.14-7.62-2.31-11.9-.61-3.22,1.28-6.22,3.95-8,8.67-1,5.86-2,11.78-2.94,17.64h7.81l3.52-21.11c.66-4,5.13-3.95,5.42-.51-1.15,7.21-2.44,14.4-3.59,21.62h7.83l3.58-21.52c.73-3.65,5.32-3.59,5.24.07-1.2,7.18-2.38,14.27-3.59,21.45h7.86l3.56-21.38C159.89,15.33,152,12.16,144.43,16.18Z"/><path class="cls-1" d="M163.26,26.14l0,.19c-.89,5.22-1.71,10.34-2.6,15.55h7.77l4.51-26.83C166,17.67,164.26,21.91,163.26,26.14Z"/><path class="cls-1" d="M165.4,12.69a11.92,11.92,0,0,0,8.68-8h-7.2Z"/><path class="cls-1" d="M177.18,25.41c-.86,5.57-1.88,10.9-2.74,16.47h8l3.41-20.5c.79-5.08,5.8-4.27,5.41-.68-1.2,7.16-2.34,14-3.53,21.18h7.85L199,21.08C200.36,12.92,182.58,10,177.18,25.41Z"/><path class="cls-2" d="M.67,15.14V41.59H27.82V15.14ZM13.92,31.93a3.56,3.56,0,1,1,3.56-3.55A3.56,3.56,0,0,1,13.92,31.93Z"/><path class="cls-1" d="M55,41.58V15.13H28.66V41.58ZM41.75,24.82a3.56,3.56,0,1,1-3.56,3.55A3.55,3.55,0,0,1,41.75,24.82Z"/><rect class="cls-2" x="27.82" y="15.14" width="0.84" height="26.45"/><rect class="cls-3" x="27.82" y="15.14" width="0.84" height="26.45"/><path class="cls-3" d="M55.63,14.46H0v27.8H55.63Zm-.34,27.38H28.66v.26H.38V14.65H28.66v.14H55.29Z"/><polygon class="cls-2" points="27.82 41.59 0.67 41.59 0.67 15.14 27.82 15.14 27.82 14.79 28.66 14.79 28.66 14.65 0.38 14.65 0.38 42.1 28.66 42.1 28.66 41.84 27.82 41.84 27.82 41.59"/><polygon class="cls-1" points="27.82 41.59 0.67 41.59 0.67 15.14 27.82 15.14 27.82 14.79 28.66 14.79 28.66 14.65 0.38 14.65 0.38 42.1 28.66 42.1 28.66 41.84 27.82 41.84 27.82 41.59"/><polygon class="cls-3" points="28.66 15.14 54.95 15.13 54.95 41.58 28.66 41.59 28.66 41.84 55.28 41.84 55.28 14.79 28.66 14.79 28.66 15.14"/><polygon class="cls-1" points="28.66 15.14 54.95 15.13 54.95 41.58 28.66 41.59 28.66 41.84 55.28 41.84 55.28 14.79 28.66 14.79 28.66 15.14"/><rect class="cls-2" x="27.82" y="41.58" width="0.84" height="0.25"/><rect class="cls-3" x="27.82" y="41.58" width="0.84" height="0.25"/><rect class="cls-3" x="27.82" y="41.58" width="0.84" height="0.25"/><rect class="cls-2" x="27.82" y="14.79" width="0.84" height="0.34"/><rect class="cls-3" x="27.82" y="14.79" width="0.84" height="0.34"/><rect class="cls-3" x="27.82" y="14.79" width="0.84" height="0.34"/><path class="cls-2" d="M13.92,24.82a3.56,3.56,0,1,0,3.56,3.56A3.56,3.56,0,0,0,13.92,24.82Z"/><path class="cls-3" d="M13.92,24.82a3.56,3.56,0,1,0,3.56,3.56A3.56,3.56,0,0,0,13.92,24.82Z"/><path class="cls-2" d="M41.75,31.93a3.56,3.56,0,1,0-3.56-3.56A3.56,3.56,0,0,0,41.75,31.93Z"/><path class="cls-1" d="M240.39,57.11c-33.29-7.59-84.65-8.72-140.88-1.53C62.17,60.36,27.67,68.17.06,77.44h0C28.85,70,64.88,64.7,103.7,62.85,163.8,60,217,66,249.19,77.46Z"/></g></g></svg>