<svg xmlns="http://www.w3.org/2000/svg" viewBox="0 0 328.25 92.99"><defs><style>.cls-1{font-size:71.71px;}.cls-1,.cls-2,.cls-3{fill:#cdcdcd;}.cls-1,.cls-2{font-family:Georgia;}.cls-2{font-size:12.64px;}</style></defs><title>Zasób 11</title><g id="Warstwa_2" data-name="Warstwa 2"><g id="Warstwa_1-2" data-name="Warstwa 1"><text class="cls-1" transform="translate(115.35 71.25)">EMKA</text><text class="cls-2" transform="translate(118.28 13.52)">WROCŁAWSKIE WYDAWNICTWO</text><path class="cls-3" d="M55.4,36.65H44.74C40.36,23.72,22.42,13.66,0,11.82V54.9c22.25,1.82,40.09,11.74,44.65,24.52H54.78c2.09-5.88,7-11.15,13.86-15.31l.14.09a56.63,56.63,0,0,1,10.45-5.06,79.57,79.57,0,0,1,20.91-4.3v-43C77.72,13.66,59.79,23.72,55.4,36.65Z"/><path class="cls-3" d="M45,33.59S35.38,11.82,8,10.06V6S36.58,4.91,46.88,33.59"/><path class="cls-3" d="M46.46,25.57S42.07,9.32,23.1,5.13l.44-2.85S43.65,4.62,47.76,25.77"/><path class="cls-3" d="M48.07,22.14a20.85,20.85,0,0,0-11-17.81L38,2.58S50.44,8.09,48.87,22.52"/><path class="cls-3" d="M55.17,33.47S64.8,11.7,92.22,9.94V5.86S63.61,4.79,53.31,33.47"/><path class="cls-3" d="M53.72,25.45S58.11,9.19,77.09,5l-.44-2.85S56.53,4.49,52.42,25.65"/><path class="cls-3" d="M52.11,22a20.86,20.86,0,0,1,11-17.81l-.85-1.74S49.74,8,51.31,22.4"/><rect class="cls-3" x="108.56" width="2.84" height="81.58"/></g></g></svg>