<svg xmlns="http://www.w3.org/2000/svg" xmlns:xlink="http://www.w3.org/1999/xlink" viewBox="0 0 375 69.64"><defs><style>.cls-1,.cls-5{fill:none;}.cls-2{clip-path:url(#clip-path);}.cls-3{clip-path:url(#clip-path-2);}.cls-4{fill:#fff;}.cls-5{stroke:#000;stroke-miterlimit:10;stroke-width:0.36px;}</style><clipPath id="clip-path" transform="translate(-40.46 -29.41)"><rect class="cls-1" x="40.46" y="29.41" width="375" height="70"/></clipPath><clipPath id="clip-path-2" transform="translate(-40.46 -29.41)"><rect class="cls-1" width="455.92" height="129.06"/></clipPath></defs><title>Zasób 18</title><g id="Warstwa_2" data-name="Warstwa 2"><g id="Warstwa_3" data-name="Warstwa 3"><g class="cls-2"><g class="cls-3"><path class="cls-4" d="M82.51,76.34s-1.76-12.47,1.95-20.13A84.27,84.27,0,0,1,94.67,41l2.39,4.92.79-7.74a33.3,33.3,0,0,1,15-8.15A49,49,0,0,1,110,36.92l5.14-3.81s1,6.35-3.55,15.54C109.94,50,103,53.17,103,53.17h5.79S96.44,70.67,82.51,76.34" transform="translate(-40.46 -29.41)"/><path class="cls-4" d="M81.71,76.66l0-.21c-.05-.42-.09-.83-.13-1.24s-.07-.82-.1-1.23c-.06-.81-.1-1.63-.12-2.45,0-1.64,0-3.29.07-4.93a38.94,38.94,0,0,1,.6-4.91c.15-.81.34-1.62.57-2.42a22.12,22.12,0,0,1,.82-2.37c.16-.39.34-.78.53-1.15l.27-.55.29-.54c.38-.73.78-1.45,1.19-2.15s.84-1.41,1.28-2.09.89-1.37,1.35-2.05c.92-1.34,1.87-2.67,2.85-4,.5-.65,1-1.3,1.5-1.93s1-1.27,1.56-1.89l.6-.7.4.83,2.36,4.93-1.08.19.84-7.74,0-.19.13-.12c.28-.28.54-.52.82-.76l.84-.71c.57-.46,1.15-.9,1.75-1.33l.9-.62.46-.3.46-.3.94-.56,1-.54c.32-.17.64-.35,1-.51l1-.47,1-.45,1-.4,1-.38c.34-.11.69-.23,1-.33.18-.05.35-.11.53-.15l.53-.15,1.07-.25.68-.17-.16.69a9.48,9.48,0,0,1-.27.95l-.33.89c-.24.6-.48,1.17-.74,1.75s-.51,1.15-.78,1.72-.54,1.13-.82,1.69l-.61-.5,5.17-3.78.51-.37.08.61c0,.19,0,.35.06.53s0,.34,0,.52c0,.34,0,.68,0,1s0,.69-.05,1l-.09,1c0,.33-.09.67-.14,1s-.1.67-.16,1-.13.66-.21,1-.15.67-.23,1l-.13.49-.14.49c-.09.33-.2.65-.29,1s-.21.65-.33,1-.23.64-.35,1-.25.63-.38.95-.26.62-.39.93-.29.62-.43.92l-.44.92,0,0,0,0c-.17.13-.34.26-.51.37l-.53.33-1.06.61c-.72.39-1.45.76-2.18,1.12-1.45.73-2.92,1.42-4.4,2.09l-.11-.46,5.8,0h.43l-.25.35c-.44.6-.89,1.19-1.34,1.77s-.92,1.16-1.39,1.73q-1.41,1.73-2.89,3.37c-2,2.2-4,4.32-6.21,6.32a65.78,65.78,0,0,1-6.89,5.57,39.2,39.2,0,0,1-7.74,4.28ZM83.32,76a40.73,40.73,0,0,0,6.87-4A65.41,65.41,0,0,0,97,66.33q3.21-3,6.11-6.38,1.45-1.66,2.84-3.39c.45-.58.91-1.16,1.35-1.74s.89-1.18,1.31-1.78l.19.35-5.8,0h-1.12l1-.47c1.47-.68,2.94-1.38,4.38-2.11.72-.37,1.44-.75,2.14-1.14q.54-.29,1-.6l.5-.32c.17-.11.32-.23.47-.34l-.07.09.43-.91.4-.91c.13-.31.27-.62.39-.93s.24-.62.35-.93.23-.63.34-.94.2-.64.31-1,.19-.63.27-1l.13-.49.12-.48c.08-.32.16-.65.22-1s.13-.66.19-1,.11-.66.15-1,.09-.66.12-1,.06-.66.08-1,0-.66,0-1,0-.66,0-1l0-.49c0-.16,0-.33,0-.47l.59.24-5.13,3.84-1.34,1,.73-1.5c.27-.56.54-1.13.8-1.69s.51-1.14.76-1.71.48-1.14.7-1.72c.11-.28.22-.57.31-.86a6.1,6.1,0,0,0,.24-.85l.53.51-1,.26-.52.15c-.17,0-.34.1-.51.15-.34.1-.67.22-1,.33l-1,.37-1,.41-1,.44L106,33l-.94.5c-.31.18-.62.35-.92.54s-.61.37-.91.56l-.45.29-.44.29-.87.62c-.58.42-1.14.85-1.68,1.3-.28.23-.55.46-.81.7s-.53.48-.76.71l.15-.31L97.63,46l-.2,2-.89-1.81-2.41-4.91,1,.13c-.51.61-1,1.24-1.51,1.87s-1,1.27-1.46,1.92q-1.44,1.94-2.78,3.94c-.45.67-.88,1.34-1.3,2s-.84,1.37-1.24,2.07-.78,1.4-1.14,2.1l-.27.53-.27.54c-.17.35-.33.71-.47,1.07A18.6,18.6,0,0,0,84,59.65c-.21.76-.37,1.53-.51,2.31a37.18,37.18,0,0,0-.51,4.73c-.07,1.59-.07,3.18,0,4.78,0,.8.08,1.59.15,2.39,0,.4.07.79.11,1.19l.12.94" transform="translate(-40.46 -29.41)"/><path class="cls-4" d="M99,50.42S87.46,58.19,79.82,81.21a7.45,7.45,0,0,0,.63,2.93s1.63-4.45,2-5.43C84.73,73.24,94.38,54.48,99,50.42" transform="translate(-40.46 -29.41)"/><path class="cls-5" d="M99,50.42S87.46,58.19,79.82,81.21a7.45,7.45,0,0,0,.63,2.93s1.63-4.45,2-5.43C84.73,73.24,94.38,54.48,99,50.42Z" transform="translate(-40.46 -29.41)"/><polygon class="cls-4" points="39.99 54.2 33.55 52.1 30.07 54.56 24.25 52.52 20.06 54.08 14.24 54.02 20.12 53.33 24.02 51.44 29.83 53.6 33.19 51.01 39.99 53.72 39.99 54.2"/><path class="cls-4" d="M80.7,51.7H49.82s-5.4.39-6,6.56c-.4,4.16,0,31.81,0,31.81a6.12,6.12,0,0,0,6.42,5.66H97.53a7.35,7.35,0,0,0,6.12-7.48V66.16l3.16-3.25V88.44s0,10-9.28,10.61H50.19s-9.73.36-9.73-9.87V58s0-9.69,9.64-9.69H82.92Z" transform="translate(-40.46 -29.41)"/><polygon class="cls-4" points="84.45 54.8 100.21 54.8 100.21 56.84 82.06 56.84 82.06 23.62 84.45 23.62 84.45 54.8"/><path class="cls-4" d="M149.29,54.84a1.79,1.79,0,0,1-.18.79,2.42,2.42,0,0,1-.46.64,2,2,0,0,1-.66.45,2.06,2.06,0,0,1-1.59,0,2.15,2.15,0,0,1-.66-.45,2.18,2.18,0,0,1-.45-.64,1.92,1.92,0,0,1-.16-.79,2.05,2.05,0,0,1,.16-.81,2.08,2.08,0,0,1,.45-.67,2.15,2.15,0,0,1,.66-.45,2.06,2.06,0,0,1,1.59,0,2,2,0,0,1,.66.45,2.28,2.28,0,0,1,.46.67,1.91,1.91,0,0,1,.18.81m-1,31.42h-2.23V62.89h2.23Z" transform="translate(-40.46 -29.41)"/><path class="cls-4" d="M171.94,66a2,2,0,0,1-.22.2.5.5,0,0,1-.29.08,1.26,1.26,0,0,1-.65-.32,8.8,8.8,0,0,0-1.09-.69,9,9,0,0,0-1.7-.69,9.46,9.46,0,0,0-6.06.4,7,7,0,0,0-2.63,2,9.32,9.32,0,0,0-1.63,3.24,14.86,14.86,0,0,0-.57,4.27,15.21,15.21,0,0,0,.58,4.37,9.33,9.33,0,0,0,1.63,3.21,7,7,0,0,0,2.56,2,8,8,0,0,0,3.34.68,8.44,8.44,0,0,0,4.7-1.27,7.69,7.69,0,0,0,1.18-.87,1.23,1.23,0,0,1,.69-.39.53.53,0,0,1,.47.23l.61.75a6.85,6.85,0,0,1-1.36,1.32,9.26,9.26,0,0,1-1.86,1.05,11.51,11.51,0,0,1-2.24.7,13,13,0,0,1-2.52.24,10,10,0,0,1-4.08-.81,8.82,8.82,0,0,1-3.17-2.35,11,11,0,0,1-2.06-3.76,17.59,17.59,0,0,1,0-10,11,11,0,0,1,2.06-3.8,9.17,9.17,0,0,1,3.31-2.48,10.77,10.77,0,0,1,4.49-.88,10.49,10.49,0,0,1,4.05.73,9.78,9.78,0,0,1,3.09,2Z" transform="translate(-40.46 -29.41)"/><path class="cls-4" d="M193.52,63.83a1.39,1.39,0,0,1-.33.9L178.57,84.5h14.37v1.76H175.87v-.89a1.44,1.44,0,0,1,.35-.87l14.67-19.84H176.64V62.89h16.88Z" transform="translate(-40.46 -29.41)"/><path class="cls-4" d="M204.25,93.77a1.5,1.5,0,0,1-.36.54.91.91,0,0,1-.65.21h-1.59l4.11-9.13-9.89-22.5h1.86a.81.81,0,0,1,.55.18,1.17,1.17,0,0,1,.29.39l7.87,18.17q.13.36.24.72c.07.24.14.49.2.74.08-.25.16-.5.25-.74l.27-.72,7.77-18.17a1,1,0,0,1,.33-.41.74.74,0,0,1,.47-.16h1.71Z" transform="translate(-40.46 -29.41)"/><path class="cls-4" d="M235.27,66.39a.93.93,0,0,1-.87.52,1.69,1.69,0,0,1-.8-.26c-.29-.17-.66-.36-1.09-.57a9.21,9.21,0,0,0-1.54-.59,7.31,7.31,0,0,0-2.11-.27,6.23,6.23,0,0,0-1.9.27,4.71,4.71,0,0,0-1.45.74,3.36,3.36,0,0,0-.91,1.09,3,3,0,0,0-.32,1.35,2.28,2.28,0,0,0,.53,1.53,4.55,4.55,0,0,0,1.4,1,12.06,12.06,0,0,0,2,.79l2.27.73c.77.26,1.53.54,2.26.85a8.37,8.37,0,0,1,2,1.18A5.07,5.07,0,0,1,236.61,79a7.81,7.81,0,0,1-.59,3,6.6,6.6,0,0,1-1.74,2.42,8.45,8.45,0,0,1-2.81,1.61,11.63,11.63,0,0,1-3.85.58,12,12,0,0,1-4.51-.81,11.3,11.3,0,0,1-3.43-2.08l1-1.59a1.33,1.33,0,0,1,.44-.47,1.24,1.24,0,0,1,.68-.17,1.61,1.61,0,0,1,.9.33c.31.22.69.46,1.13.73a8.79,8.79,0,0,0,1.62.73,7.41,7.41,0,0,0,2.39.33,6.54,6.54,0,0,0,2.13-.32,4.43,4.43,0,0,0,1.53-.86,3.27,3.27,0,0,0,.9-1.24,3.79,3.79,0,0,0,.3-1.5,2.52,2.52,0,0,0-.53-1.64,4.5,4.5,0,0,0-1.4-1.1,12.18,12.18,0,0,0-2-.8c-.74-.22-1.5-.46-2.28-.71s-1.53-.54-2.28-.86a7.9,7.9,0,0,1-2-1.21,5.43,5.43,0,0,1-1.4-1.8,5.8,5.8,0,0,1-.53-2.59,6.28,6.28,0,0,1,.57-2.62,6.38,6.38,0,0,1,1.64-2.21,8.13,8.13,0,0,1,2.65-1.51,10.55,10.55,0,0,1,3.6-.56,11.2,11.2,0,0,1,4.21.74,9.91,9.91,0,0,1,3.23,2Z" transform="translate(-40.46 -29.41)"/><path class="cls-4" d="M247.62,55a2.71,2.71,0,0,1-.24,1.14,3.32,3.32,0,0,1-.66.94,3.09,3.09,0,0,1-.95.65,3,3,0,0,1-1.15.23,2.87,2.87,0,0,1-1.14-.23,3.18,3.18,0,0,1-1.59-1.59,2.87,2.87,0,0,1-.23-1.14,3.08,3.08,0,0,1,.23-1.16,2.91,2.91,0,0,1,.65-1,3.1,3.1,0,0,1,.94-.65,2.87,2.87,0,0,1,1.14-.23,3,3,0,0,1,1.15.23,3.16,3.16,0,0,1,1.61,1.61,2.9,2.9,0,0,1,.24,1.16m-.94,31.26H242.5V62.47h4.18Z" transform="translate(-40.46 -29.41)"/><path class="cls-4" d="M268.12,91.21a.36.36,0,0,1,.27.1.51.51,0,0,1,.15.21l.66,1.55a5.81,5.81,0,0,1-1.8.88,7.83,7.83,0,0,1-2.29.34,5.15,5.15,0,0,1-3.25-.93,3,3,0,0,1-1.18-2.49,4,4,0,0,1,.77-2.34,8.33,8.33,0,0,1,2-2,11.49,11.49,0,0,1-4.45-.84,9.78,9.78,0,0,1-3.51-2.47,11.25,11.25,0,0,1-2.3-4,16.23,16.23,0,0,1-.83-5.39,13.83,13.83,0,0,1,.77-4.65,11.1,11.1,0,0,1,2.19-3.75,10.06,10.06,0,0,1,3.5-2.49,11.55,11.55,0,0,1,4.65-.9,10.59,10.59,0,0,1,3.95.71,9,9,0,0,1,3.12,2.07,9.47,9.47,0,0,1,2,3.33,12.76,12.76,0,0,1,.74,4.52,2.76,2.76,0,0,1-.21,1.32.88.88,0,0,1-.8.33H256.5a13,13,0,0,0,.61,3.92,7.86,7.86,0,0,0,1.55,2.78A6.21,6.21,0,0,0,261,82.75a8.17,8.17,0,0,0,3.05.55,8.7,8.7,0,0,0,2.71-.37,12.89,12.89,0,0,0,2-.78,13.74,13.74,0,0,0,1.37-.79,1.85,1.85,0,0,1,1-.36.89.89,0,0,1,.79.4L273,82.92a8.72,8.72,0,0,1-2.9,2.25,13.88,13.88,0,0,1-3.65,1.16,6,6,0,0,0-.93.62,5.91,5.91,0,0,0-.85.81,4.23,4.23,0,0,0-.62,1,2.71,2.71,0,0,0-.23,1.12,1.77,1.77,0,0,0,.57,1.4,2.29,2.29,0,0,0,1.56.51,3.79,3.79,0,0,0,.9-.09,2.86,2.86,0,0,0,.58-.18l.39-.2a.48.48,0,0,1,.27-.1m-4.56-26a6.4,6.4,0,0,0-4.76,1.75,8.22,8.22,0,0,0-2.16,4.85h12.94a8.69,8.69,0,0,0-.4-2.67A6,6,0,0,0,268,67a5.21,5.21,0,0,0-1.89-1.36,6.37,6.37,0,0,0-2.55-.48" transform="translate(-40.46 -29.41)"/><path class="cls-4" d="M292.63,66.86a1.5,1.5,0,0,1-.49.53,1.29,1.29,0,0,1-.66.15,2.14,2.14,0,0,1-.9-.23l-1.12-.53a9.93,9.93,0,0,0-1.44-.53,7.19,7.19,0,0,0-1.91-.23,4.46,4.46,0,0,0-2.7.72,2.27,2.27,0,0,0-1,1.91,1.84,1.84,0,0,0,.5,1.3,4.8,4.8,0,0,0,1.34.93,14.14,14.14,0,0,0,1.89.71c.71.21,1.43.45,2.16.7a22.53,22.53,0,0,1,2.16.85,7.39,7.39,0,0,1,1.89,1.22,5.76,5.76,0,0,1,1.34,1.78,5.58,5.58,0,0,1,.51,2.49,7.88,7.88,0,0,1-.64,3.2,7.12,7.12,0,0,1-1.85,2.54,8.62,8.62,0,0,1-3,1.66,14.09,14.09,0,0,1-6.55.38,15.29,15.29,0,0,1-2.28-.62,12.94,12.94,0,0,1-2-.94,9.35,9.35,0,0,1-1.63-1.18l1.34-2.2a1.78,1.78,0,0,1,.61-.61,1.7,1.7,0,0,1,.89-.21,1.89,1.89,0,0,1,1,.3c.32.2.7.42,1.12.66a11.18,11.18,0,0,0,1.49.66,6.63,6.63,0,0,0,2.17.3,5.43,5.43,0,0,0,1.77-.25,3.69,3.69,0,0,0,1.22-.64,2.42,2.42,0,0,0,.71-.93,2.76,2.76,0,0,0,.22-1.09,2,2,0,0,0-.5-1.39,4.62,4.62,0,0,0-1.34-.94,13.79,13.79,0,0,0-1.9-.71c-.72-.21-1.44-.44-2.19-.69a21.58,21.58,0,0,1-2.18-.88,7.64,7.64,0,0,1-1.9-1.28,5.76,5.76,0,0,1-1.34-1.91,6.57,6.57,0,0,1-.51-2.72,7,7,0,0,1,.59-2.82A6.55,6.55,0,0,1,279.24,64a8.46,8.46,0,0,1,2.84-1.6,11.76,11.76,0,0,1,3.93-.6,12,12,0,0,1,4.53.82A10.27,10.27,0,0,1,294,64.77Z" transform="translate(-40.46 -29.41)"/><path class="cls-4" d="M306.63,51.36V64.44l3.82-1.55v3.34a1.23,1.23,0,0,1-.79,1.27l-3,1.29V86.26h-5.8V70.83L297,72.38V69a1.13,1.13,0,0,1,.72-1.13l3.13-1.31V51.36Z" transform="translate(-40.46 -29.41)"/><path class="cls-4" d="M325.06,61.79a13.23,13.23,0,0,1,4.9.87,10.6,10.6,0,0,1,3.74,2.46,11.16,11.16,0,0,1,2.4,3.9,16.24,16.24,0,0,1,0,10.31,11.34,11.34,0,0,1-2.4,3.92A10.4,10.4,0,0,1,330,85.74a14.26,14.26,0,0,1-9.81,0,10.52,10.52,0,0,1-3.77-2.49A11.38,11.38,0,0,1,314,79.33,16.06,16.06,0,0,1,314,69a11.2,11.2,0,0,1,2.42-3.9,10.72,10.72,0,0,1,3.77-2.46,13.29,13.29,0,0,1,4.91-.87m0,20.36a5.09,5.09,0,0,0,4.45-2A10.16,10.16,0,0,0,331,74.21a10.25,10.25,0,0,0-1.44-5.94,5.08,5.08,0,0,0-4.45-2,5.14,5.14,0,0,0-4.51,2,10.2,10.2,0,0,0-1.45,5.93,10.11,10.11,0,0,0,1.45,5.91,5.18,5.18,0,0,0,4.51,2" transform="translate(-40.46 -29.41)"/><path class="cls-4" d="M338.54,62.17h4.6a1.9,1.9,0,0,1,1.1.3,1.3,1.3,0,0,1,.57.78l3.45,12.86c.19.71.34,1.4.46,2.07s.23,1.35.34,2c.17-.67.35-1.35.55-2s.4-1.36.62-2.07l4-12.91a1.5,1.5,0,0,1,.57-.78,1.65,1.65,0,0,1,1-.3h2.56a1.79,1.79,0,0,1,1.06.3,1.48,1.48,0,0,1,.56.78l3.95,13.15c.2.67.38,1.33.55,2l.48,1.91c.11-.67.23-1.34.36-2s.3-1.37.51-2.09l3.57-12.86a1.28,1.28,0,0,1,.56-.78,1.81,1.81,0,0,1,1-.3h4.39l-7.63,24.09h-4.67c-.5,0-.86-.35-1.08-1L357.63,71.3c-.14-.45-.27-.91-.39-1.37S357,69,357,68.55c-.1.47-.2.94-.31,1.4s-.23.93-.37,1.4l-4.4,13.87a1.28,1.28,0,0,1-1.26,1h-4.44Z" transform="translate(-40.46 -29.41)"/><path class="cls-4" d="M388.9,61.79a13.23,13.23,0,0,1,4.9.87,10.6,10.6,0,0,1,3.74,2.46,10.87,10.87,0,0,1,2.4,3.9,16.24,16.24,0,0,1,0,10.31,11,11,0,0,1-2.4,3.92,10.4,10.4,0,0,1-3.74,2.49,14.23,14.23,0,0,1-9.8,0,10.44,10.44,0,0,1-3.77-2.49,11.23,11.23,0,0,1-2.42-3.92,15.88,15.88,0,0,1,0-10.31,11.05,11.05,0,0,1,2.42-3.9A10.63,10.63,0,0,1,384,62.66a13.23,13.23,0,0,1,4.9-.87m0,20.36a5.08,5.08,0,0,0,4.45-2,10.16,10.16,0,0,0,1.45-5.92,10.25,10.25,0,0,0-1.45-5.94,5.07,5.07,0,0,0-4.45-2,5.15,5.15,0,0,0-4.51,2,10.2,10.2,0,0,0-1.45,5.93,10.11,10.11,0,0,0,1.45,5.91,5.19,5.19,0,0,0,4.51,2" transform="translate(-40.46 -29.41)"/><path class="cls-4" d="M415.46,81.49a5,5,0,1,1-5-4.95,5,5,0,0,1,5,4.95" transform="translate(-40.46 -29.41)"/></g></g></g></g></svg>