<svg xmlns="http://www.w3.org/2000/svg" viewBox="0 0 578.02 67.28"><defs><style>.cls-1{fill:#fff;}</style></defs><title>Zasób 3</title><g id="Warstwa_2" data-name="Warstwa 2"><g id="Warstwa_1-2" data-name="Warstwa 1"><path class="cls-1" d="M261.3,67.28h0a4.12,4.12,0,0,1-3.59-2.07l-34-59a4.09,4.09,0,0,1,0-4.14A4.09,4.09,0,0,1,227.24,0h36.3a4.16,4.16,0,0,1,3.59,2.07,3.44,3.44,0,0,0,6,0A4.16,4.16,0,0,1,276.68,0H313a4.08,4.08,0,0,1,3.58,2.07,4.09,4.09,0,0,1,0,4.14l-34.05,59a4.15,4.15,0,0,1-7.18,0l-2.23-3.88a3.44,3.44,0,0,0-6,0l-2.24,3.88A4.12,4.12,0,0,1,261.3,67.28ZM227.24.69a3.45,3.45,0,0,0-3,5.17l34.06,59a3.45,3.45,0,0,0,6,0L266.52,61a4.15,4.15,0,0,1,7.18,0l2.24,3.88a3.45,3.45,0,0,0,6,0l34-59a3.45,3.45,0,0,0-3-5.17h-36.3a3.43,3.43,0,0,0-3,1.73,4.12,4.12,0,0,1-3.59,2.07h0a4.12,4.12,0,0,1-3.59-2.07,3.43,3.43,0,0,0-3-1.73Z"/><path class="cls-1" d="M261.3,55.28,235.6,10.75a1.79,1.79,0,0,1,0-1.79,1.76,1.76,0,0,1,1.55-.89h24.12l17.65,30.56,12.69-22h-8L278.8,25l-3.47-6.44-.93-1.84a.86.86,0,0,1,0-.81L279,8.07h27.22L280.32,52.85a1.61,1.61,0,0,1-2.8,0l-20.91-36.2h-8L266.1,47ZM237.15,8.76a1.1,1.1,0,0,0-1,1.65l25.1,43.48,4-6.93L247.41,16H257L278.12,52.5a1,1,0,0,0,1.6,0L305,8.76H279.35L275,16.24a.14.14,0,0,0,0,.15l.92,1.83,2.87,5.33,4.39-7.6h9.6L278.92,40,260.87,8.76Z"/><path class="cls-1" d="M0,35.23H0l0-.42L0,20.48a.41.41,0,0,1,.44-.43l12.69,0c4.75,0,8.64,3.44,8.64,7.67s-3.89,7.59-8.64,7.59H.87V49.66H0v-.44Zm.85-.79,12.3,0c4.23,0,7.76-3,7.76-6.72s-3.53-6.8-7.76-6.8H.87Z"/><path class="cls-1" d="M36.64,34.42c1.56-3.69,5.08-5.69,9.5-5.69h.44v.87h-.44c-5.47,0-9.46,3.33-9.5,9.39V49.66h-.88V28.73h.88v5.69Z"/><path class="cls-1" d="M57.48,39.19c0-5.84,4.37-10.46,9.6-10.46s9.59,4.62,9.59,10.46-4.31,10.47-9.59,10.47S57.48,45,57.48,39.19Zm.88,0c0,5.32,3.92,9.6,8.72,9.6s8.72-4.28,8.72-9.6-3.88-9.59-8.72-9.59S58.36,33.87,58.36,39.19Z"/><path class="cls-1" d="M94.21,29.16v-.39h1l0,.44,0,20c0,4.54-3,8.12-6.63,8.12H88v-.88h.44c3.23,0,5.76-3.31,5.76-7.24Zm.43-4.27h-.43V24h.91v.87h-.48Z"/><path class="cls-1" d="M126.31,44.91l.69.52a9.69,9.69,0,0,1-8.37,4.23c-5.32,0-9.59-4.62-9.59-10.47s4.27-10.46,9.59-10.46,9.6,4.62,9.6,10.46v.44H109.92c.2,5.12,4,9.16,8.71,9.16A9,9,0,0,0,126.31,44.91Zm-16.39-6.15h17.43c0-4.89-3.88-9.16-8.72-9.16S110.12,33.64,109.92,38.76Z"/><path class="cls-1" d="M146.17,39.63h-3.11v10h-.88V19.57h.88V38.76h3.11l11-9.9.13-.13h1.31l-.83.74L147,39.19l10.77,9.73.83.74h-1.31l-.13-.13Z"/><path class="cls-1" d="M173.93,29.6V44.17c0,3,2.32,4.62,6.2,4.62h.43v.87h-.43c-4.58,0-7-2-7.07-5.49V29.6h-3.84v-.87h3.84v-5h.87v5h6.63v.87h-6.63Z"/><path class="cls-1" d="M199.36,48l7.41-19,.09-.26h1l-.26.61L199.75,49.4l-.08.26h0c-2.56,6.07-4.43,7.68-8.17,7.68H191v-.88h.44c3.49,0,5.11-1.7,7.43-7.24l-7.83-19.88-.26-.61h1l.09.26Z"/><path class="cls-1" d="M328.85,20.53l-.09-.52h.88l.08.34,6,27.35,10.2-27.39a.43.43,0,0,1,.79,0l10.2,27.39,6-27.35L363,20h.87l-.09.52-6.28,28.78a.44.44,0,0,1-.83,0L346.3,21.71,336,49.36a.44.44,0,0,1-.83,0Z"/><path class="cls-1" d="M390.52,34.14h-.87c0-2.58-3-4.54-6.46-4.54s-6.45,2-6.45,4.54c0,5,14.61,4.27,14.57,10.11,0,2.93-3.45,5.41-8.12,5.41s-8.11-2.48-8.11-5.41H376c0,2.58,3.36,4.54,7.24,4.54s7.24-2,7.24-4.54c0-5-14.52-4.18-14.56-10.11,0-2.93,3.18-5.41,7.32-5.41S390.52,31.21,390.52,34.14Z"/><path class="cls-1" d="M404.87,29.6h-.44v-.87H418.7l-.48.7L404.78,48.79h14.44v.87H403.13l.48-.7L417,29.6Z"/><path class="cls-1" d="M448.7,44.91l.7.52A9.7,9.7,0,0,1,441,49.66c-5.32,0-9.6-4.62-9.6-10.47s4.28-10.46,9.6-10.46,9.59,4.62,9.59,10.46v.44H432.31c.21,5.12,4,9.16,8.72,9.16A8.93,8.93,0,0,0,448.7,44.91Zm-16.39-6.15h17.44c0-4.89-3.88-9.16-8.72-9.16S432.52,33.64,432.31,38.76Z"/><path class="cls-1" d="M464.58,20v-.44h.87V49.66h-.87V20Z"/><path class="cls-1" d="M480,39.19c0-5.84,4.1-10.46,9.08-10.46,3.41,0,6.42,2.36,7.85,5.88V28.73h.87V49.66h-.87V43.78c-1.43,3.52-4.44,5.88-7.85,5.88C484.07,49.66,480,45,480,39.19Zm.88,0c0,5.32,3.66,9.6,8.2,9.6,4.31,0,7.85-4.32,7.85-9.6s-3.54-9.59-7.85-9.59C484.51,29.6,480.85,33.87,480.85,39.19Z"/><path class="cls-1" d="M517.45,39.63h-3.11v10h-.87V19.57h.87V38.76h3.11l11-9.9.13-.13h1.31l-.83.74-10.77,9.72L529,48.92l.83.74h-1.31l-.13-.13Z"/><path class="cls-1" d="M544,24.76h-.44v-.87h.92v.87H544Zm-.44,4.4v-.43h.88V49.66h-.88V29.16Z"/><path class="cls-1" d="M576.1,44.91l.7.52a9.71,9.71,0,0,1-8.38,4.23c-5.32,0-9.59-4.62-9.59-10.47s4.27-10.46,9.59-10.46,9.6,4.62,9.6,10.46v.44H559.71c.2,5.12,4,9.16,8.71,9.16A8.93,8.93,0,0,0,576.1,44.91Zm-16.39-6.15h17.44a9,9,0,0,0-8.73-9.16C563.67,29.6,559.91,33.64,559.71,38.76Z"/></g></g></svg>