<svg xmlns="http://www.w3.org/2000/svg" viewBox="0 0 93.42 92.56"><defs><style>.cls-1{fill:#cdcdcd;}</style></defs><title>Zasób 13</title><g id="Warstwa_2" data-name="Warstwa 2"><g id="Warstwa_1-2" data-name="Warstwa 1"><path class="cls-1" d="M37.07,92.56c-.83-.15-1.66-.26-2.47-.47-5.11-1.33-8-5.36-7.88-10.72A11.53,11.53,0,0,1,29,74.29a10.27,10.27,0,0,1,6.89-3.7,18.21,18.21,0,0,1,7.63.45c.45.13.63.29.58.79-.12,1.29-.18,2.58-.26,3.81a22,22,0,0,0-3.22-.87,11.39,11.39,0,0,0-3.4.1,5,5,0,0,0-3.92,3.32,9.36,9.36,0,0,0,.16,7.18,4.43,4.43,0,0,0,5.23,2.68c.46-.11.7-.28.68-.81,0-1.14,0-2.28,0-3.47H36.5v-4h8.23c0,.24,0,.47,0,.7,0,3.39,0,6.78,0,10.16,0,.57-.19.85-.7,1l-3.79.79-.76.13Z"/><path class="cls-1" d="M4.94,92.56.76,91.79.43,91.7l.33-4.5c1.34.35,2.61.76,3.91,1a6.16,6.16,0,0,0,2.18-.07,1.93,1.93,0,0,0,1.69-1.79,1.91,1.91,0,0,0-1.18-2.16c-1-.45-1.94-.81-2.92-1.22a7.71,7.71,0,0,1-3-2,6.35,6.35,0,0,1,2.61-9.93,13.56,13.56,0,0,1,8.83,0,.69.69,0,0,1,.35.54c0,1.23-.11,2.45-.17,3.77-.26-.09-.48-.16-.68-.25A9.48,9.48,0,0,0,8,74.43c-1.61.15-2.55,1.31-2,2.59a2.88,2.88,0,0,0,1.22,1.25c1,.55,2,1,3,1.42l.83.38a5.56,5.56,0,0,1,3.44,6.35C14,89.89,11.66,92,8,92.43a5.58,5.58,0,0,0-.69.13Z"/><path class="cls-1" d="M63.35,0l5.53,5.69L50.35,23.75,85.61,55.93l0,.15h-.8q-14.93,0-29.85,0a1,1,0,0,0-1.1.62,4.28,4.28,0,0,1-2.22,1.9A16.62,16.62,0,0,1,43.09,60a14.72,14.72,0,0,1-5.26-1.24,5.19,5.19,0,0,1-2.72-2.38c-.06-.13-.28-.22-.44-.27a2.79,2.79,0,0,0-.58,0H3.6l-.09-.14C23.62,37.51,44.22,19.59,63.35,0ZM44.63,29.15l-21,19.06H65.52Z"/><path class="cls-1" d="M48.42,70.81h8.46l2.79,13.1h.16l3.06-13.1h8.26v21.3h-5.1V76.25l-.15,0-4.51,15.9H57.77L53.55,76.28l-.14,0V92.12h-5Z"/><path class="cls-1" d="M93.42,92.13H87.51l-1.13-4.47H80.11l-1.38,4.48H73.21c.57-1.74,1.13-3.46,1.7-5.17,1.72-5.19,3.46-10.37,5.17-15.57a.75.75,0,0,1,.85-.63c1.74,0,3.49,0,5.24,0,.34,0,.53,0,.65.43q3.27,10.32,6.56,20.63C93.4,91.92,93.4,92,93.42,92.13Zm-8.13-8.67c-.61-2.75-1.22-5.45-1.82-8.15h-.13l-2.23,8.14Z"/><path class="cls-1" d="M23.47,92.13H17.8V70.82h5.67Z"/></g></g></svg>