<svg xmlns="http://www.w3.org/2000/svg" viewBox="0 0 206 56.07"><defs><style>.cls-1{fill:#00ff81;}.cls-2{fill:#fff;}</style></defs><title>Zasób 16</title><g id="Warstwa_2" data-name="Warstwa 2"><g id="Warstwa_3" data-name="Warstwa 3"><polygon class="cls-1" points="59.88 0 70.31 0 49 56.07 38.5 56.07 59.88 0"/><path class="cls-2" d="M17,27.87c0,4-1.35,5.42-5,5.42s-5-1.45-5-5.42V7H0V28.11C0,36,3.55,39.31,11.91,39.31S23.77,36,23.77,28.11V7H17Z"/><path class="cls-2" d="M42,7H29.47V38.75h7V27.64H42c8,0,11.44-3,11.44-10.27S50.06,7,42,7m-.61,14.66h-5V13h5c3.55,0,5,1.31,5,4.34s-1.5,4.34-5,4.34"/><path class="cls-2" d="M78.17,32.45v-.09c3.08-1.08,4.34-3.27,4.34-6.77,0-5.7-3.27-8.27-10.74-8.27H59V49.07H72.75c7.43,0,10.79-2.75,10.79-8.92,0-4.15-1.54-6.63-5.37-7.7M66,23.25h5c3.41,0,4.53.8,4.53,3.32S74.39,30,70.7,30H66Zm5.51,19.89H66V35.9h5c4.15,0,5.55.94,5.55,3.69s-1.26,3.55-5,3.55"/><path class="cls-2" d="M113.1,27.36c0-7.1-3.08-10-10.88-10h-13V49.07h7V37.35H100l6.3,11.72h8L107.45,36.7c4-1.17,5.65-4.16,5.65-9.34m-11.62,4H96.25V23.3h5.23c3.4,0,4.62,1.17,4.62,4.06s-1.22,4-4.62,4"/><path class="cls-2" d="M129,17.32,118.38,49.07h7.1l2-6.4h10l2,6.4h7.43L136.26,17.32Zm.18,19.52,3.27-11.58,3.27,11.58Z"/><polygon class="cls-2" points="169.53 37.35 158.74 17.32 151.32 17.32 151.32 49.07 157.95 49.07 157.95 27.69 169.48 49.07 176.16 49.07 176.16 17.32 169.53 17.32 169.53 37.35"/><path class="cls-2" d="M193.67,17.32H181.86V49.07h11.81c8.55,0,12.33-3.88,12.33-12.51V29.83c0-8.59-3.78-12.51-12.33-12.51M199,36.42c0,4.95-1.59,6.67-6.31,6.67h-3.83V23.3h3.83C197.41,23.3,199,25,199,30Z"/></g></g></svg>