<svg xmlns="http://www.w3.org/2000/svg" viewBox="0 0 324.4 94.08"><defs><style>.cls-1{fill:#cdcdcd;}</style></defs><title>Zasób 14</title><g id="Warstwa_2" data-name="Warstwa 2"><g id="Warstwa_1-2" data-name="Warstwa 1"><path class="cls-1" d="M302.09,47.48c1,.06,2-.28,2.81.47l.28.21h0c1.53,2.82.94,5.53-.44,8.2-.13.25-.46.55-.15.81s.58-.1.87-.2c1.22.08,1.9-.29,2-1.71a15.16,15.16,0,0,1,1.61-5c.25-.59.58-1.36,1.49-.71-.21,2.42-1,4.76-.95,7.21,0,.7,0,1.41,1,1.44.41-.06.83-.09,1.23-.19,2.32-.62,2.78-1.2,3.1-3.55a12.87,12.87,0,0,1,3.22-7.35,3,3,0,0,1,4.07-.76c1,3-.85,7.69-3.78,9.38-1.65,1-1.63,1.93.08,3.11a7.88,7.88,0,0,0,4.36-3.11c.46-.58.86-.84,1.56-.63v1.26c-.59.3-.87.9-1.32,1.31-1.6,1.45-3,3.32-5.53,3.1-1.13-.23-1.64-1.18-2.28-2-.35-1-.83-.36-1.26-.08a8.78,8.78,0,0,1-5,1.75,2.11,2.11,0,0,1-1.63-1.66c-.08-.59-.5-.61-.93-.48-3.08.89-6.49.8-9.11,3.06-1.92-.67-1.42-2.22-1.31-3.62,0-.8.05-1.6.07-2.41.83-4.13,1.35-8.33,2.51-12.39.92-3.22,1.82-6.44,3.91-9.15,1.36-1.77,2.42-2.08,4.3-1.29a3.55,3.55,0,0,1,.31.23l0,0,.37.33,0,0,.34.38v-.05c0,2.14.06,4.27-.77,6.32-1.25,3.09-3.45,5.42-5.79,7.67-.52.49-1.21.91-1,1.81l-.07.11.07-.12Zm-1.88,10.09a1.72,1.72,0,0,0,1.89-.81,7.67,7.67,0,0,0,1.53-6.18c-.27-.82-.77-.68-1.1-.13a25,25,0,0,0-3,6.66C299.45,57.55,299.57,58,300.21,57.57Zm5.28-22.24c-.07-1.09-.52-.59-.94-.23a8.91,8.91,0,0,0-2,3.31,22.49,22.49,0,0,0-1.76,6.73,1.2,1.2,0,0,0,1-1C304.15,41.71,305.73,38.91,305.49,35.33Zm14.56,14.11a4.71,4.71,0,0,0-1.91,4.16C318.44,52.14,319.74,51.13,320.05,49.44Z"/><path class="cls-1" d="M155.91,52.12c.64-.95,1-2.41,2.69-1.42l.32.27v0c-.06.67-.09,1.34-.2,2a8.94,8.94,0,0,0,0,3.38c.09.46-.18,1.58,1,1.29,2.77-1.36,3.94-3.91,4.87-6.61a12.44,12.44,0,0,0,.28-1.86c.14-.77-.25-2,.86-2.09s1,1.17,1.23,2.19c1.73-1.79,3.53-2.75,5.82-1.6l.26.17,0,0,.36.29,0,0,.36.36,0,0,.33.37v0c.59,2.15.11,4.24-.4,6.32l-.1.17.17-.11.72-.06a2.13,2.13,0,0,0,1.83-1.93,11.63,11.63,0,0,1,3.24-6.27,3,3,0,0,1,3.94-.44l.35.48v0a9.61,9.61,0,0,1-4.27,8.84c-1.43,1-1.51,1.31-.4,2.8l.26.26.09.07A8.19,8.19,0,0,0,185,54.05c1.07-2.1,2-4.25,3-6.37.52-1.07,1.25-1.54,2.37-.75l.33.27,0,0a1.42,1.42,0,0,0,1,1.28l0,0c.88,1.85,2,3.66,1.56,5.85-.18,1-.35,1.93-.55,2.89-.14.65-.12,1.07.71.67l.31,0c1.61-.39,2.78-.92,2.56-3.07a21.64,21.64,0,0,1,.53-5c.13-.93.53-1.4,1.45-.67,0,2-.49,4-.3,6,0,.35-.17.82.2,1s.66-.34,1-.55c1.55-2,2.08-4.52,2.9-6.88.56-1.58,1.07-1.75,2.54-1,0,2,0,4,0,6,0,.68,0,.68.67.77,1-.36,1.93-.74,2.91-1.07a3.39,3.39,0,0,1,2.43,0,1,1,0,0,1,.61,1.13.85.85,0,0,1-.92.68c-.57,0-1.14-.07-1.7-.1-2.71.24-4,1.59-4,4.21a34.94,34.94,0,0,1-1.26,10.32c-1.08,3.7-3.05,5.72-6,5.9h0c-.19-.3-.51-.27-.8-.32-2.39-1-3.52-4.06-2.88-7.55a17.16,17.16,0,0,1,5-8.81,3.2,3.2,0,0,0,1.5-1.22c.93-.46,2-.8,1.7-2.18a19.83,19.83,0,0,1-1.74,2.14c-2.39.81-4.94,1.19-7.14,2.56a2.92,2.92,0,0,1-1.82.31c-1.6-.85-1.21-2.26-.93-3.56a10.15,10.15,0,0,0-.24-6.12c-.48-1-.88-1.13-1.41,0-1.44,3.09-3,6.07-5.76,8.27a5.79,5.79,0,0,1-4,1.71c-2-.58-2.39-2.31-2.84-4,0-.53-.2-.61-.67-.42-.82.34-1.66.62-2.49.94-2.14.81-3.67,2.82-6.07,3.09-.81.1-.8.6-.88,1.2-.27,2.06-.65,4.11-.89,6.17a1.5,1.5,0,0,1-1.59,1.55c-1.1-.44-.93-1.35-.82-2.23.38-3,.77-6.06,1.15-9.09.1-.54.45-1.05.2-1.65-1.66,1.23-2.54,3.44-4.88,3.76-1.4-.34-1.83-1.5-2.26-2.66-.06-.3,0-.74-.21-.86-.37-.24-.48.24-.65.45-.81,1-1.69,1.73-3.07,1.53-1.1-.43-1.1-1.39-1.14-2.34V54.05c-1,1.63-1.68,3-2.53,4.19-.6.88-1.19,1.88-2.48,1.93l-.92-.6c0-.71-.25-.7-.69-.26a5,5,0,0,1-3.39,1.74c-1.32-.31-1.22-1.54-1.58-2.47,0-.59,0-1.06-.81-.49s-1.88,1.52-3.21,1.38a2.31,2.31,0,0,1-1.71-2.68c.16-1.51-.53-.9-1.18-.47-5.08,3.31-10.46,5.63-16.72,5h0c-.21-.32-.54-.29-.85-.32A8,8,0,0,1,111,52.85a22.31,22.31,0,0,1,11-17.85,7.35,7.35,0,0,1,8,0l.29.21h0l.36.3,0,0,.37.34,0-.05.35.37,0,0c.1.13.21.25.32.38v0c.55,2.11.43,4.07-1.29,5.67-.83-.14-.77-.64-.55-1.28,1.1-3.17.17-4.5-3.16-4.55-.46,0-.93-.06-1.39-.09a2.84,2.84,0,0,0-1.66.36,13.85,13.85,0,0,0-5.38,4.69c-2.63,3.56-4.49,7.44-4.5,12,0,1.57.27,3.16,1.87,4.06l0,0,.33.34,0,0,.35.32,0,0,.53.36c3.09,1.29,6.15.71,9.19-.16a28.43,28.43,0,0,0,5.59-2.39c2-1.06,3.69-2.25,4.38-4.58a5.29,5.29,0,0,1,2.73-3.1c1.84-1,3.41-.43,4.06,1.6.17.53.63.65.9,1a10.3,10.3,0,0,1-.58,3.85,31.88,31.88,0,0,0-.67,3.37c-.08.49-.15,1.14.74,1A7.94,7.94,0,0,0,146.65,54a15.22,15.22,0,0,1,1.72-4.69c.22-.35.37-1.2,1.08-.42.08,1.25,0,2.49-.06,3.78l.84-1.6c.63-.94,1.2-1.93,1.9-2.8s1.61-1.29,2.66-.43l.36.34v0a17.38,17.38,0,0,1-.76,5.88C155.48,53.63,155.16,52.48,155.91,52.12Zm-15.48-2.39a.69.69,0,0,0-1-.18c-1.34.71-3.07,4.91-2.59,6.36.15.48.42.3.66,0,1.49-1.24,1.93-3.18,3.13-4.6C141.29,50.63,141.14,50.18,140.43,49.73Zm27,7.56A7,7,0,0,0,172,52a2,2,0,0,0-.49-1.75c-.58-.8-1.12-.48-1.66.06-1.93,1.91-2.52,4.46-3.27,6.92C166.4,57.66,166.5,57.69,167.4,57.29ZM202,60v-.9l-.33-.22c-.84.89-1.71,1.76-2.52,2.68C197,64,195.7,66.76,196,70.09c.1,1.08.28,2.19,1.57,2.59,1.61.17,2-1.12,2.43-2.19A26.22,26.22,0,0,0,202,60ZM181.26,49.43l-.37-.23a7,7,0,0,0-1.59,4.15C180,52,180.6,50.74,181.26,49.43Z"/><path class="cls-1" d="M214.63,60.07a1.72,1.72,0,0,1-1.49-1.58c-.34-2.92,2.47-7.91,5.14-9.11a2,2,0,0,1,1-.33c1.51.31,1.73-.55,2-1.77.64-2.85,1.48-5.66,2.26-8.48a7.45,7.45,0,0,1,1.28-2.66c.85-1.07,1.81-1.37,3-.44.26,3.35-.89,6.41-2.27,9.3A35.24,35.24,0,0,0,222,57.81c-.05.82-.3,1.67.86,1.93a10.78,10.78,0,0,0,3-2.74c.46-.46.74-1.12,1.58-1.15s.34-.61.31-.94a31,31,0,0,1,2.4-15.31,11.38,11.38,0,0,1,3.5-4.92,2.33,2.33,0,0,1,3-.28l.3.22,0,0a6.16,6.16,0,0,1,.33,2.62,32.31,32.31,0,0,1-6.63,16.08,2.89,2.89,0,0,0,1,4.29,8,8,0,0,0,6.52-5c.78-1.85,1.52-3.67,3.46-4.66a2.64,2.64,0,0,1,2.94,0l.28.2h0c.6.62-.31,2.13,1.29,2.16l.31.19a2.84,2.84,0,0,1,0,2.09c-.49,1.63-.88,3.3-1.22,5-.11.49-.48,1.38.72,1.21a7.28,7.28,0,0,0,2.4-2.08c.42-.49.86-1,1.52-.33A6.65,6.65,0,0,1,244.57,61c-1.14-.38-1.28-1.35-1.39-2.34,0-.94-.08-1.28-1.05-.56s-1.84,1.55-3.17,1.31a2.53,2.53,0,0,1-1.69-1.76c0-.76-.07-1.14-.86-.4-1.58,1.48-3.35,2.65-5.68,2.47a3.85,3.85,0,0,1-2.33-2.19c-.13-.33-.27-.66-.39-1-1.07,1.27-2.09,2.55-3.2,3.75a3.58,3.58,0,0,1-2.89,1.31c-2-1.1-1.61-3.07-1.73-4.86A3.22,3.22,0,0,0,220,55.2C218.28,56.93,217,59.15,214.63,60.07Zm2.17-5A6.33,6.33,0,0,0,219,52c.13-.54.86-.73.88-1.41-2.5,1-4.42,3.77-4.06,6Zm23.92.58,0,0c1.45-1.11,1.79-3,2.93-4.29a1.07,1.07,0,0,0,0-1.69.67.67,0,0,0-.82-.25c-1.45.57-3.55,5.14-3,6.62.25.64.49.06.68-.17Zm-9.46-6.83a25.85,25.85,0,0,0,3.13-9.18c.06-.65.59-1.25.14-2.15a25,25,0,0,0-4.3,13.81Z"/><path class="cls-1" d="M289.78,58.65c2.1-.07,3.26-1.61,4.53-2.95.43-.46.68-1.15,1.45-.48-.29,2.57-4,5.54-6.81,5.49-1.12-.24-1.61-1.23-2.3-2-.45-1.07-.95-.17-1.29,0a8.7,8.7,0,0,1-4.94,1.64c-1.77-.59-1.76-2-1.72-3.52.27-1.81-.7-.66-1.1-.41-5,3.23-10.36,5.43-16.5,4.89l-.14,0-.12-.07-.59-.27a8.17,8.17,0,0,1-4.64-8.79,22.7,22.7,0,0,1,10.54-17,7.5,7.5,0,0,1,8.84,0l.35.28,0,0,.35.33,0,0,.34.35,0,0a4.93,4.93,0,0,1-1,6c-.69-.12-1-.39-.68-1.17,1.21-3.36.37-4.56-3.19-4.68-.41,0-.82-.06-1.23-.1a4.72,4.72,0,0,0-3.14,1.22,20.51,20.51,0,0,0-8.34,14.11c-.32,2.19-.3,4.52,1.92,6l-.06,0a.6.6,0,0,0,.58.42c2.77,1.6,5.66,1.14,8.54.46a32.53,32.53,0,0,0,6.81-2.73,7.4,7.4,0,0,0,4.17-4.94c.18-.63.25-1.87,1.58-1.23a10.64,10.64,0,0,1-.2,2c-.31,1.73-.53,3.49-.73,5.25-.07.7,0,1.42,1,1.41.51-.08,1-.13,1.54-.25a3.36,3.36,0,0,0,2.84-3.42,12.26,12.26,0,0,1,2.93-7.14c1.33-1.57,2.55-1.82,4.29-1.06l.32.28v0a9.29,9.29,0,0,1-4.31,9.26C288.29,56.56,288.37,57.72,289.78,58.65Zm-.3-5,2.17-4.38A5.37,5.37,0,0,0,289.48,53.69Z"/><path class="cls-1" d="M281.91,42.82c0-.59.33-1,.87-.94A1.31,1.31,0,0,1,284.23,43c.07.78-.71.69-1.13.74A1.09,1.09,0,0,1,281.91,42.82Z"/><path class="cls-1" d="M311.65,43.76c-.63,0-1.11-.3-1.14-1a.77.77,0,0,1,.85-.88,1.08,1.08,0,0,1,1.14,1C312.57,43.4,312.21,43.7,311.65,43.76Z"/><path class="cls-1" d="M196.49,75.18c.29,0,.61,0,.8.32A.89.89,0,0,1,196.49,75.18Z"/><path class="cls-1" d="M115.57,61c.31,0,.64,0,.85.32A.89.89,0,0,1,115.57,61Z"/><path class="cls-1" d="M260.25,61.05l.59.27A.6.6,0,0,1,260.25,61.05Z"/><path class="cls-1" d="M116.63,58.23l-.53-.36Z"/><path class="cls-1" d="M260.82,57.91a.6.6,0,0,1-.58-.42A.65.65,0,0,1,260.82,57.91Z"/><path class="cls-1" d="M131.56,36.49c-.11-.13-.22-.25-.32-.38C131.47,36.13,131.59,36.25,131.56,36.49Z"/><path class="cls-1" d="M276,36.18l-.34-.35A.33.33,0,0,1,276,36.18Z"/><path class="cls-1" d="M131.27,36.16l-.35-.37C131.15,35.81,131.28,35.92,131.27,36.16Z"/><path class="cls-1" d="M173,47.81l-.26-.17Z"/><path class="cls-1" d="M275.66,35.86l-.35-.33C275.51,35.56,275.64,35.65,275.66,35.86Z"/><path class="cls-1" d="M131,35.84l-.37-.34A.36.36,0,0,1,131,35.84Z"/><path class="cls-1" d="M275.34,35.56l-.35-.28Z"/><path class="cls-1" d="M130.63,35.54l-.36-.3Z"/><path class="cls-1" d="M115.8,57.59l-.33-.34Z"/><path class="cls-1" d="M116.13,57.89l-.35-.32Z"/><path class="cls-1" d="M130.26,35.24,130,35Z"/><path class="cls-1" d="M173.43,48.12l-.36-.29Z"/><path class="cls-1" d="M293.9,46.56l-.32-.28C293.76,46.29,293.89,46.36,293.9,46.56Z"/><path class="cls-1" d="M244.78,48.16l-.28-.2Z"/><path class="cls-1" d="M236.94,34.62l-.3-.22Z"/><path class="cls-1" d="M305.18,48.16,304.9,48Z"/><path class="cls-1" d="M179.48,58.79l-.09-.07Z"/><path class="cls-1" d="M173.75,48.43l-.36-.36C173.6,48.1,173.75,48.19,173.75,48.43Z"/><path class="cls-1" d="M307.77,33.34l-.34-.38C307.66,33,307.79,33.1,307.77,33.34Z"/><path class="cls-1" d="M307.47,33l-.37-.33C307.31,32.7,307.46,32.79,307.47,33Z"/><path class="cls-1" d="M307.13,32.71a3.55,3.55,0,0,0-.31-.23A3.55,3.55,0,0,1,307.13,32.71Z"/><path class="cls-1" d="M183.79,46.87l-.35-.48C183.67,46.48,183.84,46.59,183.79,46.87Z"/><path class="cls-1" d="M174.05,48.75l-.33-.37C174,48.39,174.08,48.51,174.05,48.75Z"/><path class="cls-1" d="M300.17,49.08l-.07.12.07-.11Z"/><path class="cls-1" d="M173.71,55.09l-.17.11.1-.17Z"/><path class="cls-1" d="M240.47,55.93l.25-.25Z"/><path class="cls-1" d="M94.09,47A47,47,0,1,1,47,0,47.05,47.05,0,0,1,94.09,47ZM58.33,59.15c.39.7.7,1.35,1.08,2,1.82,2.81,4.28,2.83,6,0,.87-1.37,1.61-2.82,2.48-4.36.07.4.14.66.17.91.54,4.74,1,9.49,1.74,14.19.19,1.16.69,2.14,2,1.93s1.52-1.23,1.37-2.42c-.38-3-.65-5.94-1-8.9A1.08,1.08,0,0,1,73,61.11a7.69,7.69,0,0,0,3.71-2.82,17.75,17.75,0,0,1,5.12-4.54c.87-.59,1.72-1.2,2.58-1.8.58-.4,1.27-.87.79-1.63s-1.28-.33-1.92,0a19.67,19.67,0,0,1-3.33,1.89c.45-2.58.55-5-.66-7.32a4.44,4.44,0,0,0-5.43-2.3,5.76,5.76,0,0,0-3.59,3.08c-.32.64-.43,1.46-1.23,1.88-.23-1-.4-2-.65-2.85a.84.84,0,0,0-1.09-.65.81.81,0,0,0-.63.95,19.72,19.72,0,0,0,.24,2c.84,4.2-.35,8-2.52,11.5-.43.71-1,1.57-1.9,1.45s-1-1.1-1.3-1.83A27.21,27.21,0,0,1,60.09,53c-.15-.94-.48-1.82-1.53-1.92s-1.63.71-1.93,1.69c-.44,1.43-.91,2.84-1.44,4.47a7,7,0,0,1-.27-2.41,15.47,15.47,0,0,0-.55-4.5c-.34-.9-.84-1.73-1.95-1.83a2.28,2.28,0,0,0-2.23,1.43,11.42,11.42,0,0,0-1.11,2.93c-.43,1.56-.87,3.12-1.3,4.68-.24-1.73-.1-3.42-.72-5-.15-.37-.32-.87-.81-.87s-.54.55-.67.92A14.78,14.78,0,0,0,45,56.72c-.15,3.16,0,6.41-2.28,9-.51.59-1,1.6-1.73,1.4s-.66-1.31-.67-2.06c0-2.31,0-4.62,0-6.92,0-1.26-.32-2.37-1.92-2.25-.59,0-.5-.33-.64-.64-1.07-2.45-3.32-2.86-5.29-1-2.92,2.79-4.15,10.57-2.24,14.15a3,3,0,0,0,4.64.77c.93-.83,1.93-1.56,2.8-2.26a2.48,2.48,0,0,0,.24.58c.58,1.07.85,2.54,2.38,2.64s2.69-.93,3.57-2.2a7.66,7.66,0,0,1,1.39-2A1.92,1.92,0,0,0,47,67.54c.92,0,1.34-.72,1.71-1.42a23.13,23.13,0,0,0,1.73-4.71,6.18,6.18,0,0,1,1-2.74c.85,1.74.45,4.36,3,4.58S57.39,61,58.33,59.15ZM43,38.73c.19.43.35.86.56,1.27,1.07,2.14,2.33,2.46,4.24,1,1.49-1.15,2-2.92,2.56-4.58,2.11-5.95,3.1-12.16,4.36-18.31.14-.66.12-1.33-.7-1.5s-1,.37-1.19,1q-1.86,5.58-3.74,11.15c-.92,2.68-1.8,5.37-3.05,8.13a12.23,12.23,0,0,1-1-3.17,48,48,0,0,0-1.83-6.32,3.77,3.77,0,0,0-1.59-2.07c-.54-.31-1.06-.57-1.55,0a1,1,0,0,0,.15,1.41,5.16,5.16,0,0,1,1.16,2.71c.29,1.7.48,3.42.83,5.11a3,3,0,0,1-1,3.08,14.34,14.34,0,0,1-1.8,1.52c-3,1.83-3.75,1.29-4.09-1.75-.27-2.44-.44-4.9-.69-7.35,0-.56-.11-1.28-.83-1.33s-.92.63-1,1.2a26.38,26.38,0,0,0-.45,8.59,13,13,0,0,0,.43,2.15c.89,2.82,2.72,3.57,5.34,2.22a14.57,14.57,0,0,0,3.77-3C42.14,39.43,42.37,38.91,43,38.73ZM62.58,33A11.33,11.33,0,0,0,63,34.13c.57,1.09.93,2.54,2.42,2.61a3.77,3.77,0,0,0,3.34-2c.81-1.34,1.52-2.74,2.23-4.13.29-.57.53-1.26-.22-1.65s-1.24.17-1.55.83a12.35,12.35,0,0,1-2,3.19c-.32.34-.65.83-1.14.73s-.51-.83-.64-1.3a4.66,4.66,0,0,1-.09-1.24c0-2.15,0-4.3,0-6.44,0-1.26-.33-2.34-1.9-2.31-.53,0-.52-.33-.68-.65-1.13-2.37-3.28-2.77-5.19-1-3,2.8-4.26,10.64-2.31,14.25a3,3,0,0,0,4.65.72C60.85,34.88,61.65,34,62.58,33ZM21.91,42.75c-.27-1-.58-2-.81-3a48,48,0,0,0-1.88-6.47,3.51,3.51,0,0,0-1.95-2.14.93.93,0,0,0-1.15.2.91.91,0,0,0,0,1.17c1.57,1.85,1.56,4.15,1.9,6.36.39,2.58.6,5.22,1.87,7.57.91,1.69,2,1.9,3.61.88,1.8-1.13,2.32-3.05,3-4.85a113.8,113.8,0,0,0,4.13-17.38c.16-.85.91-2-.44-2.4s-1.21,1-1.49,1.79C26.4,30.54,24.73,36.76,21.91,42.75ZM15.78,65.33a12.25,12.25,0,0,0,.66,4.72,5.52,5.52,0,0,0,4.27,3.56c2,.38,3.3-.78,4.32-2.26s1.72-2.76,2.56-4.14c.35-.59.8-1.24,0-1.79s-1.24.11-1.69.62c-1,1.19-2,2.43-3.1,3.55s-2,1-2.84-.42a4.32,4.32,0,0,1-.53-1.8A14.85,14.85,0,0,1,20.62,60c.34-.79.58-2,1.5-2s.67,1.21,1,1.84a1.48,1.48,0,0,1,.12.29.9.9,0,0,0,1.14.57c.56-.13.71-.57.64-1.09-.23-1.58-.48-3.21-2.18-3.91s-3,.21-4.25,1.28A6.65,6.65,0,0,0,17,59.44,16.94,16.94,0,0,0,15.78,65.33ZM34.2,19.81c-.13-.61-.36-1.21-1.16-1.16A1.18,1.18,0,1,0,33.18,21C33.87,21,34.15,20.5,34.2,19.81Z"/><path class="cls-1" d="M71.81,57.63c0-3.44.12-6.65,1.43-9.68.4-.92.82-2.12,2.17-1.82S77,47.6,77.06,48.71C77.38,52,75.12,56,71.81,57.63Z"/><path class="cls-1" d="M32.9,66c-.83-3.45-.71-6.49.86-9.4.44-.8,1.11-1.3,1.89-.79a1.49,1.49,0,0,1,.64,2.07,54,54,0,0,0-1.68,5.37A5.64,5.64,0,0,1,32.9,66Z"/><path class="cls-1" d="M58.08,32.56a12.72,12.72,0,0,1,.68-9.11c.43-.86,1-1.62,2.05-1.08.81.45,1.09,1.15.58,2.27a38.51,38.51,0,0,0-1.59,5.05A6,6,0,0,1,58.08,32.56Z"/></g></g></svg>