<svg xmlns="http://www.w3.org/2000/svg" viewBox="0 0 40 40"><defs><style>.cls-1{fill:none;stroke:#fff;stroke-miterlimit:10;stroke-width:0.74px;}.cls-2{fill:#fff;fill-rule:evenodd;}</style></defs><title>Zasób 25</title><g id="Warstwa_2" data-name="Warstwa 2"><g id="Warstwa_1-2" data-name="Warstwa 1"><rect class="cls-1" x="0.37" y="0.37" width="39.26" height="39.26" rx="8.89"/><path class="cls-2" d="M10.05,21.05H14a2.14,2.14,0,0,1,2.39,2.06c0,.88-.69,1.91-1.56,1.91H10.05Zm12.7-7.93h7.11v2.37H22.75Zm6.16,7.93H23.69a2.62,2.62,0,0,1,5.22,0Zm-5.39,1.58h8.73v-.39a5.77,5.77,0,0,0-5.94-5.95,5.76,5.76,0,0,0-5.94,5.95,5.75,5.75,0,0,0,5.94,6,5.43,5.43,0,0,0,5.82-4.78H28.91a2.6,2.6,0,0,1-2.6,2.4c-1.51,0-2.66-1.41-2.79-3.18Zm-3.94.78a4,4,0,0,0-2.7-3.72,4,4,0,0,0,1.88-3.4,4,4,0,0,0-3.94-4H6.87V28.19h8a4.79,4.79,0,0,0,4.76-4.78ZM14,18.7H10.05V15.49H14a1.61,1.61,0,0,1,0,3.21Z"/></g></g></svg>