<svg xmlns="http://www.w3.org/2000/svg" viewBox="0 0 40 40"><defs><style>.cls-1{fill:none;stroke:#fff;stroke-miterlimit:10;stroke-width:0.74px;}.cls-2{fill:#fff;fill-rule:evenodd;}</style></defs><title>Zasób 26</title><g id="Warstwa_2" data-name="Warstwa 2"><g id="Warstwa_1-2" data-name="Warstwa 1"><rect class="cls-1" x="0.37" y="0.37" width="39.26" height="39.26" rx="8.89"/><path class="cls-2" d="M31,13.72a9.89,9.89,0,0,1-2.64.72,4.53,4.53,0,0,0,2-2.52A9.51,9.51,0,0,1,27.46,13a4.62,4.62,0,0,0-8,3.09,4.34,4.34,0,0,0,.14,1,13,13,0,0,1-9.49-4.73,4.44,4.44,0,0,0,1.41,6,4.42,4.42,0,0,1-2.08-.56V18a4.38,4.38,0,0,0,.31,1.63,4.57,4.57,0,0,0,3.39,2.8,4.6,4.6,0,0,1-1.22.17,4.28,4.28,0,0,1-.87-.09,4.65,4.65,0,0,0,4.3,3.16,9.28,9.28,0,0,1-5.71,1.93,10.14,10.14,0,0,1-1.1-.06,13.24,13.24,0,0,0,7,2A12.81,12.81,0,0,0,28.41,19.39a12.36,12.36,0,0,0,.3-2.74v-.58A9.64,9.64,0,0,0,31,13.72Z"/></g></g></svg>