<svg xmlns="http://www.w3.org/2000/svg" viewBox="0 0 220.51 220.51"><defs><style>.cls-1{fill:none;}.cls-1,.cls-2{stroke:#fd4040;stroke-linecap:round;stroke-linejoin:round;stroke-width:4px;}.cls-2{fill:#fff;}</style></defs><title>Zasób 5</title><g id="Warstwa_2" data-name="Warstwa 2"><g id="Warstwa_1-2" data-name="Warstwa 1"><circle class="cls-1" cx="110.26" cy="110.26" r="108.26"/><path class="cls-1" d="M44.17,148H173.12a0,0,0,0,1,0,0v12.43a2.76,2.76,0,0,1-2.76,2.76H46.93a2.76,2.76,0,0,1-2.76-2.76V148a0,0,0,0,1,0,0Z"/><path class="cls-2" d="M108.64,162.32l-5.47-3.93A18.43,18.43,0,0,0,92.44,155H47.3a3.13,3.13,0,0,1-3.13-3.13v-100A2.76,2.76,0,0,1,46.93,49H93a18.43,18.43,0,0,1,11.46,4l4.23,3.37Z"/><path class="cls-2" d="M170.35,155H124a18.42,18.42,0,0,0-12.1,4.53l-3.26,2.84V56.4l3.26-2.84A18.42,18.42,0,0,1,124,49h46.35a2.76,2.76,0,0,1,2.77,2.76v100.4A2.77,2.77,0,0,1,170.35,155Z"/><rect class="cls-1" x="50.62" y="58.7" width="46.51" height="20.26"/><rect class="cls-1" x="50.62" y="84.95" width="46.51" height="31.32"/><rect class="cls-1" x="117.85" y="125.94" width="46.51" height="20.26"/><rect class="cls-1" x="117.85" y="61.24" width="23.03" height="55"/><line class="cls-1" x1="50.23" y1="123.12" x2="74.15" y2="123.12"/><line class="cls-1" x1="145.1" y1="65.16" x2="169.02" y2="65.16"/><line class="cls-1" x1="145.1" y1="74.16" x2="169.02" y2="74.16"/><line class="cls-1" x1="145.1" y1="83.16" x2="169.02" y2="83.16"/><line class="cls-1" x1="145.1" y1="92.16" x2="169.02" y2="92.16"/><line class="cls-1" x1="145.1" y1="101.16" x2="169.02" y2="101.16"/><line class="cls-1" x1="145.1" y1="110.16" x2="169.02" y2="110.16"/><line class="cls-1" x1="78.15" y1="123.12" x2="96.24" y2="123.22"/><line class="cls-1" x1="49.92" y1="132.88" x2="63.95" y2="132.88"/><line class="cls-1" x1="73.92" y1="132.88" x2="96.26" y2="132.88"/><line class="cls-1" x1="68.92" y1="132.88" x2="69.26" y2="132.88"/><line class="cls-1" x1="50.62" y1="142.05" x2="96.67" y2="142.05"/></g></g></svg>