<svg xmlns="http://www.w3.org/2000/svg" viewBox="0 0 220.51 220.51"><defs><style>.cls-1{fill:none;stroke:#fd4040;stroke-linecap:round;stroke-linejoin:round;stroke-width:4px;}.cls-2{fill:#fd4040;}</style></defs><title>Zasób 6</title><g id="Warstwa_2" data-name="Warstwa 2"><g id="Warstwa_1-2" data-name="Warstwa 1"><circle class="cls-1" cx="110.26" cy="110.26" r="108.26"/><path class="cls-2" d="M155.54,114.46,136,121.68a2.38,2.38,0,1,0,1.65,4.47l19.58-7.22a2.38,2.38,0,0,0-1.65-4.47Z"/><path class="cls-2" d="M156.54,134.77l-24.78,9.14a2.38,2.38,0,1,0,1.65,4.47l24.78-9.14a2.38,2.38,0,1,0-1.65-4.47Z"/><path class="cls-2" d="M125,146.43l-1,.39a2.38,2.38,0,0,0,1.65,4.47l1-.39a2.38,2.38,0,1,0-1.65-4.47Z"/><path class="cls-2" d="M156.54,125.06,137,132.29a2.38,2.38,0,1,0,1.65,4.47l19.58-7.23a2.38,2.38,0,1,0-1.65-4.47Z"/><path class="cls-2" d="M167.72,73.27,110.3,52.09a2.34,2.34,0,0,0-1.65,0L51.24,73.27h0a2.73,2.73,0,0,0-.54.27,2.39,2.39,0,0,0-1,2v68.16a2.39,2.39,0,0,0,1.56,2.24l57.41,21.18a2.39,2.39,0,0,0,.83.15,2.29,2.29,0,0,0,.82-.15h0l57.42-21.18a2.39,2.39,0,0,0,1.56-2.24V75.51A2.39,2.39,0,0,0,167.72,73.27ZM69.93,84.64l21,7.74v25.45l-21-7.74Zm23.35,3.52-18.85-7,18.85-7,18.85,7Zm16.2-31.3L160,75.51,109.48,94.16l-9.35-3.45,19.7-7.27a2.38,2.38,0,0,0,0-4.47L94.1,69.48a2.34,2.34,0,0,0-1.65,0L67.52,78.67l-8.58-3.16Zm-55,22.07,10.73,3.95v28.87A2.39,2.39,0,0,0,66.72,114l25.73,9.49a2.38,2.38,0,0,0,3.21-2.24V94.14l11.44,4.22v63.08L54.44,142Zm57.42,82.51V98.36l52.65-19.43V142Z"/></g></g></svg>