<svg xmlns="http://www.w3.org/2000/svg" viewBox="0 0 220.51 220.51"><defs><style>.cls-1{fill:none;stroke:#fd4040;stroke-linecap:round;stroke-linejoin:round;stroke-width:4px;}.cls-2{fill:#fd4040;}</style></defs><title>Zasób 7</title><g id="Warstwa_2" data-name="Warstwa 2"><g id="Warstwa_1-2" data-name="Warstwa 1"><circle class="cls-1" cx="110.26" cy="110.26" r="108.26"/><path class="cls-2" d="M162.26,105.55V61a10.14,10.14,0,0,0-10.13-10.13H63A10.14,10.14,0,0,0,52.91,61V91.37a6.09,6.09,0,0,0-6.08,6.08V158.2a6.08,6.08,0,0,0,6.08,6.07H97.46a6.07,6.07,0,0,0,6.07-6.07h17a6.08,6.08,0,0,0,5.86-7.67l-4-14.61h11.52V158.2a6.08,6.08,0,0,0,6.07,6.07h22.28a6.07,6.07,0,0,0,6.07-6.07V111.62A6.07,6.07,0,0,0,162.26,105.55Zm2,6.07v4H138v-4a2,2,0,0,1,2-2h22.28A2,2,0,0,1,164.28,111.62ZM138,119.72h26.32V150.1H138ZM57,61A6.09,6.09,0,0,1,63,54.92h89.1A6.09,6.09,0,0,1,158.21,61v44.55H140a6.08,6.08,0,0,0-6.07,6.07v4H103.53V97.45a6.08,6.08,0,0,0-6.07-6.08H57Zm42.52,89.1H50.88V105.55h48.6ZM52.91,95.42H97.46a2,2,0,0,1,2,2v4H50.88v-4A2,2,0,0,1,52.91,95.42Zm44.55,64.8H52.91a2,2,0,0,1-2-2v-4h48.6v4A2,2,0,0,1,97.46,160.22Zm24.66-6.87a2,2,0,0,1-1.61.8h-17V150.1h18.52l.41,1.49A2,2,0,0,1,122.12,153.35Zm-1.17-7.3H103.53V135.92h14.66Zm-17.42-14.18V119.72h30.38v12.15Zm58.73,28.35H140a2,2,0,0,1-2-2v-4h26.32v4A2,2,0,0,1,162.26,160.22Z"/><rect class="cls-2" x="64.01" y="58.97" width="4.05" height="4.05"/><rect class="cls-2" x="72.11" y="58.97" width="4.05" height="4.05"/><rect class="cls-2" x="80.21" y="58.97" width="4.05" height="4.05"/></g></g></svg>