<svg xmlns="http://www.w3.org/2000/svg" viewBox="0 0 220.51 220.51"><defs><style>.cls-1,.cls-2{fill:none;}.cls-1{stroke:#e84040;stroke-linecap:round;stroke-linejoin:round;stroke-width:4px;}.cls-3{fill:#e84040;}</style></defs><title>Zasób 45</title><g id="Warstwa_2" data-name="Warstwa 2"><g id="Warstwa_1-2" data-name="Warstwa 1"><circle class="cls-1" cx="110.26" cy="110.26" r="108.26"/><path class="cls-2" d="M135.93,119.33a12.33,12.33,0,0,0,12.68.29,12,12,0,0,0,0-21.06,12.31,12.31,0,0,0-12.68.3,55,55,0,0,0-12.14,10.23A55.33,55.33,0,0,0,135.93,119.33Z"/><path class="cls-2" d="M46.68,76.55v65.18h128.5V109.09a32.07,32.07,0,0,1-9.37,22.85,1.88,1.88,0,0,1-2.66-2.67A28.71,28.71,0,0,0,156.68,84a29.31,29.31,0,0,0-14.23-3.72h-.12a29,29,0,0,0-15.1,4.39h0A71.7,71.7,0,0,0,113.5,95.8a75.58,75.58,0,0,1,5.78,7.47h0l.06.1c.64.94,1.31,1.87,2,2.78a58.83,58.83,0,0,1,12.58-10.51,16,16,0,0,1,16.5-.39,15.8,15.8,0,0,1,0,27.66,16.07,16.07,0,0,1-16.5-.38,59.23,59.23,0,0,1-17.7-17.05l-.07-.09h0a70.42,70.42,0,0,0-6.61-8.33l-.09-.11a71.67,71.67,0,0,0-14.8-12.22h0a29,29,0,0,0-15.11-4.4A29.3,29.3,0,0,0,65.18,84a1.88,1.88,0,0,1-2.56-.73,1.9,1.9,0,0,1,.73-2.57,32.6,32.6,0,0,1,33.29.78h0A75.51,75.51,0,0,1,110.93,93a75.31,75.31,0,0,1,14.29-11.51h0a32.7,32.7,0,0,1,17.08-5,33.15,33.15,0,0,1,16.2,4.19,32.1,32.1,0,0,1,16.67,28.35V76.55Z"/><path class="cls-3" d="M158.51,80.74a33.15,33.15,0,0,0-16.2-4.19,32.7,32.7,0,0,0-17.08,5h0A75.31,75.31,0,0,0,110.93,93a75.51,75.51,0,0,0-14.27-11.5h0a32.6,32.6,0,0,0-33.29-.78,1.9,1.9,0,0,0-.73,2.57,1.88,1.88,0,0,0,2.56.73,29.3,29.3,0,0,1,14.35-3.72,29,29,0,0,1,15.11,4.4h0A71.67,71.67,0,0,1,109.46,97l.09.11a70.42,70.42,0,0,1,6.61,8.33h0l.07.09a59.23,59.23,0,0,0,17.7,17.05,16.07,16.07,0,0,0,16.5.38,15.8,15.8,0,0,0,0-27.66,16,16,0,0,0-16.5.39,58.83,58.83,0,0,0-12.58,10.51c-.7-.91-1.37-1.84-2-2.78l-.06-.1h0a75.58,75.58,0,0,0-5.78-7.47,71.7,71.7,0,0,1,13.68-11.06h0a29,29,0,0,1,15.1-4.39h.12A29.31,29.31,0,0,1,156.68,84a28.71,28.71,0,0,1,6.47,45.23,1.88,1.88,0,0,0,0,2.67,1.88,1.88,0,0,0,2.66,0,32.48,32.48,0,0,0-7.3-51.2ZM135.93,98.86a12.31,12.31,0,0,1,12.68-.3,12,12,0,0,1,0,21.06,12.33,12.33,0,0,1-12.68-.29,55.33,55.33,0,0,1-12.14-10.24A55,55,0,0,1,135.93,98.86Z"/><path class="cls-3" d="M63.35,137.44a33,33,0,0,0,16,4.2h.16a32.71,32.71,0,0,0,17.09-5l0,0a75.46,75.46,0,0,0,14.26-11.5,75.57,75.57,0,0,0,14.25,11.49l0,0a32.71,32.71,0,0,0,17.1,5h.15a33,33,0,0,0,16-4.2,1.89,1.89,0,0,0-1.83-3.3,29.26,29.26,0,0,1-14.21,3.72h-.14a29,29,0,0,1-15.11-4.39l0,0a71.88,71.88,0,0,1-14.79-12.22l-.09-.1a71.41,71.41,0,0,1-6.63-8.35h0v0h0v0h0l0,0v0a59.21,59.21,0,0,0-17.69-17h0a16.05,16.05,0,0,0-16.49-.38,15.8,15.8,0,0,0,0,27.66,16.07,16.07,0,0,0,16.5-.38h0A59,59,0,0,0,100.5,112c.67.86,1.3,1.74,1.91,2.63a.71.71,0,0,0,.1.14,75,75,0,0,0,5.85,7.58,71.43,71.43,0,0,1-13.69,11.07l0,0a28.94,28.94,0,0,1-15.11,4.39h-.14a29.26,29.26,0,0,1-14.21-3.72,28.69,28.69,0,0,1-6-45.66,1.89,1.89,0,0,0-2.6-2.73,32.48,32.48,0,0,0,6.8,51.69Zm22.58-18.11h0a12.31,12.31,0,0,1-12.67.29,12,12,0,0,1,0-21.06,12.32,12.32,0,0,1,12.68.3h0a55.14,55.14,0,0,1,12.12,10.22,55,55,0,0,1-12.14,10.24Z"/></g></g></svg>