<svg xmlns="http://www.w3.org/2000/svg" viewBox="0 0 220.51 220.51"><defs><style>.cls-1{fill:none;}.cls-1,.cls-2{stroke:#e84040;stroke-linecap:round;stroke-linejoin:round;stroke-width:4px;}.cls-2{fill:#fff;}.cls-3{fill:#e84040;}</style></defs><title>Zasób 46</title><g id="Warstwa_2" data-name="Warstwa 2"><g id="Warstwa_1-2" data-name="Warstwa 1"><circle class="cls-1" cx="110.26" cy="110.26" r="108.26"/><rect class="cls-1" x="35.71" y="64.53" width="144.54" height="99.52" rx="7.08"/><rect class="cls-1" x="46.89" y="75.05" width="98.66" height="78.49" rx="3.99"/><rect class="cls-1" x="155.88" y="73.86" width="12.18" height="28.66" rx="0.85"/><rect class="cls-1" x="155.88" y="124.81" width="12.18" height="28.66" rx="0.85"/><path class="cls-1" d="M48.73,152.29A59.22,59.22,0,0,1,108,93h-.14a36.51,36.51,0,0,1,36.53,36.53,22.72,22.72,0,0,1-22.73,22.73h.14a13.94,13.94,0,0,1-13.94-13.94,8.78,8.78,0,0,1,8.78-8.79h-.14a5.3,5.3,0,0,1,5.3,5.3,3.48,3.48,0,0,1-3.48,3.49,1.75,1.75,0,0,1-1.68-1.82"/><circle class="cls-1" cx="161.55" cy="113.77" r="6.52"/><rect class="cls-2" x="122.7" y="44.99" width="12.04" height="61.92" transform="translate(27.3 -33.83) rotate(16.73)"/><path class="cls-1" d="M136.33,37.88h5.06a3.49,3.49,0,0,1,3.49,3.49v5.11a0,0,0,0,1,0,0h-12a0,0,0,0,1,0,0V41.37A3.49,3.49,0,0,1,136.33,37.88Z" transform="translate(18.01 -38.18) rotate(16.73)"/><polygon class="cls-1" points="119.81 105.6 114.14 103.89 116.83 115.51 125.47 107.3 119.81 105.6"/><rect class="cls-3" x="128.48" y="58.97" width="3.44" height="24.08" transform="translate(25.94 -34.47) rotate(16.73)"/></g></g></svg>