<svg xmlns="http://www.w3.org/2000/svg" xmlns:xlink="http://www.w3.org/1999/xlink" viewBox="0 0 2736.71 1436.52"><defs><style>.cls-1{fill:none;}.cls-2{opacity:0.2;}.cls-3{clip-path:url(#clip-path);}.cls-4{fill:#e2e2e2;}</style><clipPath id="clip-path"><rect class="cls-1" x="345.36" y="53.52" width="1919" height="1080"/></clipPath></defs><title>Zasób 9</title><g id="Warstwa_2" data-name="Warstwa 2"><g id="Warstwa_1-2" data-name="Warstwa 1"><g class="cls-2"><g class="cls-3"><path class="cls-4" d="M383,674.52h0a41.09,41.09,0,0,1-36-20.77L5.63,62.28A41.51,41.51,0,0,1,41.58,0h363.9a41.63,41.63,0,0,1,35.95,20.75,34.55,34.55,0,0,0,59.84,0A41.62,41.62,0,0,1,537.21,0H901.12a41.51,41.51,0,0,1,36,62.28L595.64,653.74a41.51,41.51,0,0,1-71.91,0l-22.45-38.89a34.54,34.54,0,0,0-59.85,0L419,653.75A41.09,41.09,0,0,1,383,674.52ZM41.58,7A34.56,34.56,0,0,0,11.66,58.79L353.1,650.26a34.54,34.54,0,0,0,59.85,0l22.45-38.89a41.51,41.51,0,0,1,71.91,0l22.45,38.88a34.53,34.53,0,0,0,59.85,0L931,58.79A34.55,34.55,0,0,0,901.12,7H537.21A34.64,34.64,0,0,0,507.3,24.24,41.11,41.11,0,0,1,471.35,45h0a41.12,41.12,0,0,1-36-20.75A34.65,34.65,0,0,0,405.48,7Z"/><path class="cls-4" d="M383,554.21,125.35,107.82a17.94,17.94,0,0,1,15.54-26.93H382.76L559.67,387.32,686.91,166.9H606.68l-48.25,83.53-34.76-64.52-9.27-18.5a8.48,8.48,0,0,1,.25-8.09l45.29-78.43h273l-259.2,449a16.21,16.21,0,0,1-28.08,0L336,166.9H255.8L431.19,470.76ZM140.89,87.85a11,11,0,0,0-9.51,16.48L383,540.27l40.12-69.51L243.73,159.94h96.32L551.66,526.38c3.34,5.79,12.67,5.8,16,0L820.84,87.85H564l-43.3,75a1.54,1.54,0,0,0,0,1.47l9.22,18.42,28.8,53.44,44-76.2H699L559.67,401.26,378.73,87.85Z"/><path class="cls-4" d="M2177,1436.52h0a41.09,41.09,0,0,1-36-20.77L1799.63,824.28A41.51,41.51,0,0,1,1835.58,762h363.9a41.63,41.63,0,0,1,35.95,20.75,34.55,34.55,0,0,0,59.84,0A41.62,41.62,0,0,1,2331.21,762h363.91a41.51,41.51,0,0,1,36,62.28l-341.43,591.46a41.51,41.51,0,0,1-71.91,0l-22.45-38.89a34.54,34.54,0,0,0-59.85,0l-22.45,38.9A41.09,41.09,0,0,1,2177,1436.52ZM1835.58,769a34.56,34.56,0,0,0-29.92,51.83l341.44,591.47a34.54,34.54,0,0,0,59.85,0l22.45-38.89a41.51,41.51,0,0,1,71.91,0l22.45,38.88a34.53,34.53,0,0,0,59.85,0L2725,820.79A34.55,34.55,0,0,0,2695.12,769H2331.21a34.64,34.64,0,0,0-29.91,17.28,41.11,41.11,0,0,1-36,20.75h0a41.12,41.12,0,0,1-35.95-20.75A34.65,34.65,0,0,0,2199.48,769Z"/><path class="cls-4" d="M2177,1316.21,1919.35,869.82a17.94,17.94,0,0,1,15.54-26.93h241.87l176.91,306.43L2480.91,928.9h-80.23l-48.25,83.53-34.76-64.52-9.27-18.5a8.48,8.48,0,0,1,.25-8.09l45.29-78.43h273l-259.2,449a16.21,16.21,0,0,1-28.08,0L2130,928.9H2049.8l175.39,303.86ZM1934.89,849.85a11,11,0,0,0-9.51,16.48L2177,1302.27l40.12-69.51L2037.73,921.94h96.32l211.61,366.44c3.34,5.79,12.67,5.8,16,0l253.16-438.53H2358l-43.3,75a1.54,1.54,0,0,0,0,1.47l9.22,18.42,28.8,53.44,44-76.2H2493l-139.3,241.32L2172.73,849.85Z"/></g></g></g></g></svg>